<?xml version="1.0" encoding="UTF-8"?>
<svg id="Layer_2" data-name="Layer 2" xmlns="http://www.w3.org/2000/svg" viewBox="0 0 98.9 83.94">
  <defs>
    <style>
      .cls-1 {
        fill: #1d1d1b;
      }

      .cls-2 {
        fill: #4a494a;
      }

      .cls-3 {
        fill: #cd1142;
      }
    </style>
  </defs>
  <g id="Lag_1" data-name="Lag 1">
    <g>
      <path class="cls-1" d="M97.82,30.86c.92.83.84,2.12.8,2.45.04.33.12,1.57-.63,2.52-.48.63-1.21.99-2.14,1.09-.4.12-3.27,1.06-5.66,2.5-.01-.01-.02-.01-.03-.02s-.36-.14-.9-.43l-.07-.11c2.75-1.78,6.26-2.87,6.41-2.91l.1-.02c.68-.06,1.18-.3,1.5-.71.58-.73.43-1.82.42-1.83v-.08s.01-.08.01-.08c0-.01.15-1.06-.49-1.64-.53-.48-1.54-.54-2.92-.18l-4.41.86c-.49.03-1.76.21-2.15.8-.06.09-.23.36.01.97l.04.1-.07,1.48-1.68.83c-.24-.24-.47-.5-.7-.78l1.41-.69.03-.68c-.3-.84-.1-1.42.12-1.77.74-1.14,2.66-1.24,2.88-1.25l4.29-.85c1.73-.45,3.02-.31,3.83.43Z"/>
      <path class="cls-1" d="M90.19,39.42c8.67,4.23,8.31,11.77,8.31,11.84l-.11,25.67c.33,2.26-.06,4.05-1.19,5.25-1.29,1.36-3.14,1.51-3.9,1.51-.21,0-.34-.01-.36-.01h-6.63c-2.54.11-4.47-.45-5.7-1.68-1.44-1.43-1.37-3.23-1.37-3.31v-5.54c-16.88,1.86-55.52,0-60.54-.25l.1,4.91c.15,3.82-2.46,4.61-4.74,4.87-2.11.23-7.76.17-8,.17-2.03-.04-3.57-.66-4.57-1.86-1.57-1.88-1.18-4.47-1.16-4.58v-25.86c-.29-6.87,6.05-10.41,8.39-11.47.27.14.55.28.81.44l.51-.86c-.05-.03-.11-.06-.16-.09,1-.52,2.03-1.43,3.08-2.72l.56.24.4-.92-.33-.14c1.08-1.48,2.18-3.37,3.3-5.63.1-.18.17-.33.21-.41l2.56-4.83c.14.15.23.24.25.27l.72-.69s-.18-.19-.47-.52l.15-.28c1.6-3.58,5.43-4.11,7.02-4.16.74.36,1.59.65,2.52.89v.11h-1.89c-.06-.01-5.03-.26-6.75,3.6l-3.23,6.08c-.04.08-.1.21-.19.39-2.64,5.35-5.28,8.65-7.85,9.81-.13.04-8.93,3.22-8.61,10.87v25.96c-.02.1-.35,2.34.94,3.87.8.95,2.08,1.46,3.81,1.49.05,0,5.82.06,7.86-.17,2.4-.27,3.97-1.02,3.86-3.84l-.12-6,.54.03c.44.02,43.9,2.31,61.46.22l.56-.06v6.68s-.04,1.48,1.09,2.59c1.03,1.02,2.7,1.48,4.96,1.37h6.7c.07.02,2.19.19,3.49-1.19.9-.96,1.21-2.46.91-4.47l.11-25.78c.02-.31.3-7-7.74-10.91-.17-.07-5.46-2.08-7.52-8.05-.19-.52-3.6-6.17-5.71-9.62l-.04-.1s-.98-2.44-7.4-2.81v-.07c.76-.2,1.46-.44,2.09-.72,4.95.72,6.06,2.8,6.23,3.22.18.29.47.77.84,1.37-.12.12-.18.19-.19.2l.71.66c1.71,2.82,4.24,7.04,4.42,7.54.52,1.5,1.26,2.73,2.07,3.73l-.16.08.44.9.42-.2c1.21,1.28,2.48,2.08,3.3,2.52l.47.73c.15-.1.3-.19.46-.28Z"/>
      <path class="cls-1" d="M97.14,31.59c.64.58.49,1.63.49,1.64l-.02.08v.08s.17,1.1-.41,1.83c-.32.41-.82.65-1.5.71l-.1.02c-.15.04-3.66,1.13-6.41,2.91l.07.11c-.82-.44-2.09-1.24-3.3-2.52l1.68-.83.07-1.48-.04-.1c-.24-.61-.07-.88-.01-.97.39-.59,1.66-.77,2.15-.8l4.41-.86c1.38-.36,2.39-.3,2.92.18Z"/>
      <path class="cls-1" d="M89.76,40.32c8.04,3.91,7.76,10.6,7.74,10.91l-.11,25.78c.3,2.01,0,3.51-.91,4.47-1.3,1.38-3.42,1.21-3.49,1.2h-6.7c-2.26.1-3.93-.36-4.96-1.38-1.13-1.11-1.09-2.55-1.09-2.59v-6.68l-.56.06c-17.56,2.09-61.02-.2-61.46-.22l-.54-.03.12,6c.11,2.82-1.46,3.57-3.86,3.84-2.04.23-7.81.17-7.86.17-1.73-.03-3.01-.54-3.81-1.49-1.29-1.53-.96-3.77-.95-3.87v-25.96c-.31-7.65,8.49-10.83,8.62-10.87,2.57-1.16,5.21-4.46,7.85-9.81.09-.18.15-.31.19-.39l3.23-6.08c1.72-3.86,6.69-3.61,6.75-3.6h37.01c1.58-.11,2.94-.11,4.12-.04,6.42.37,7.39,2.78,7.4,2.81l.04.1c2.11,3.45,5.52,9.1,5.71,9.62,2.06,5.97,7.35,7.98,7.52,8.05ZM85.08,50.55l3.99-8.09-18.64,6.73,3.4,2.52,11.25-1.16ZM86.96,62.31l-3.44-6.64-.39.1c-.18.05-18.93,5.13-34.9,4.06h-.03c-.19,0-19.34-.32-32.96-4.06l-.42-.11-2.99,6.73,1.33,2.48,12.89,1.42,4.47-5.72,2.86.21-3.28,7.71,3.42-1.14h31.7l3.89,2.03-3.08-8.37,1.03-.15,5.02,5.15,13.52-1.41,1.36-2.29ZM80.47,37.19l-.23-.57c-.15-.39-3.74-9.3-5.82-11.65-.25-.53-1.66-2.85-6.84-2.43-1.27-.05-31.01-1.15-37.69-.05-.21,0-4.94,0-6.26,3.39-.02.05-2.77,4.85-5.53,10.71l-.28.6.65.11c.21.03,14.16,2.26,32.21,2.26,9.09,0,19.23-.57,29.18-2.27l.61-.1ZM24.53,51.71l3.41-2.52-18.72-6.72,4.01,8.08,11.3,1.16Z"/>
      <path class="cls-1" d="M90.16,39.4s.02.01.03.02c-.16.09-.31.18-.46.28l-.47-.73c.54.29.89.42.9.43Z"/>
      <path class="cls-1" d="M89.07,42.46l-3.99,8.09-11.25,1.16-3.4-2.52,18.64-6.73ZM84.43,49.62l2.64-5.37-14.54,5.25,1.58,1.17,10.32-1.05Z"/>
      <polygon class="cls-3" points="87.07 44.25 84.43 49.62 74.11 50.67 72.53 49.5 87.07 44.25"/>
      <path class="cls-1" d="M83.52,55.67l3.44,6.64-1.36,2.29-13.52,1.41-5.02-5.15-1.03.15,3.08,8.37-3.89-2.03h-31.7l-3.42,1.14,3.28-7.71-2.86-.21-4.47,5.72-12.89-1.42-1.33-2.48,2.99-6.73.42.11c13.62,3.74,32.77,4.06,32.96,4.06h.03c15.97,1.07,34.72-4.01,34.9-4.06l.39-.1ZM85.82,62.28l-2.81-5.44c-1.59.41-7.76,1.95-15.52,3.03l4.97,5.1,12.54-1.31.82-1.38ZM67.28,67.29l-2.61-7.06c-5.26.62-11.03.96-16.5.6-.33-.01-6.05-.11-13.39-.8l-2.89,6.81,1.46-.49h32.12l1.81.94ZM30.06,59.54l.29.02c-4.95-.59-10.26-1.45-14.96-2.71l-2.45,5.5.85,1.58,11.82,1.3,4.45-5.69Z"/>
      <path class="cls-1" d="M85.96,36.45l-.42.2-.44-.9.16-.08c.23.28.46.54.7.78Z"/>
      <path class="cls-2" d="M83.01,56.84l2.81,5.44-.82,1.38-12.54,1.31-4.97-5.1c7.76-1.08,13.93-2.62,15.52-3.03Z"/>
      <path class="cls-1" d="M83.34,13.97c.45,5.02-4.34,10.24-4.55,10.45l-.02-.02c-.19-.31-.36-.6-.52-.86.85-.99,4.46-5.43,4.09-9.48-.15-1.71-1.01-3.15-2.54-4.29l-6.59-4.84c1.47,2.49,3.24,6.47,2.13,9.83-.61,1.83-2.01,3.24-4.16,4.19-.7-.11-1.48-.19-2.34-.23h0c3-.81,4.87-2.24,5.55-4.28,1.57-4.7-3.53-11.23-3.58-11.29l-2.3-2.9,11.88,8.71c1.78,1.33,2.77,3.01,2.95,5.01Z"/>
      <path class="cls-1" d="M82.34,14.06c.37,4.05-3.24,8.49-4.09,9.48-.37-.6-.66-1.08-.84-1.37-.17-.42-1.28-2.5-6.23-3.22,2.15-.95,3.55-2.36,4.16-4.19,1.11-3.36-.66-7.34-2.13-9.83l6.59,4.84c1.53,1.14,2.39,2.58,2.54,4.29Z"/>
      <path class="cls-1" d="M80.24,36.62l.23.57-.61.1c-9.95,1.7-20.09,2.27-29.18,2.27-18.05,0-32-2.23-32.21-2.26l-.65-.11.28-.6c2.76-5.86,5.51-10.66,5.53-10.71,1.32-3.39,6.05-3.39,6.26-3.39,6.68-1.1,36.42,0,37.69.05,5.18-.42,6.59,1.9,6.84,2.43,2.08,2.35,5.67,11.26,5.82,11.65ZM79.08,36.41c-.85-2.06-3.79-9.02-5.45-10.83l-.1-.16c-.04-.09-.97-2.29-5.93-1.88-.37-.01-30.96-1.14-37.63-.06-.13.01-4.34.02-5.44,2.83-.05.11-2.6,4.55-5.24,10.1,4.63.68,32.83,4.48,59.79,0Z"/>
      <path class="cls-1" d="M78.77,24.4l-.71-.66s.07-.08.19-.2c.16.26.33.55.52.86Z"/>
      <path class="cls-2" d="M73.63,25.58c1.66,1.81,4.6,8.77,5.45,10.83-26.96,4.48-55.16.68-59.79,0,2.64-5.55,5.19-9.99,5.24-10.1,1.1-2.81,5.31-2.82,5.44-2.83,6.67-1.08,37.26.05,37.63.06,4.96-.41,5.89,1.79,5.93,1.88l.1.16Z"/>
      <path class="cls-1" d="M71.18,18.95c-.63.28-1.33.52-2.09.72l-.25-.95c.86.04,1.64.12,2.34.23Z"/>
      <path class="cls-1" d="M69.09,19.67v.07c-1.18-.07-2.54-.07-4.12.03H29.85s0-.1,0-.1l.23-.89h34.86c1.46-.1,2.76-.11,3.9-.06l.25.95Z"/>
      <path class="cls-2" d="M64.67,60.23l2.61,7.06-1.81-.94h-32.12l-1.46.49,2.89-6.81c7.34.69,13.06.79,13.39.8,5.47.36,11.24.02,16.5-.6Z"/>
      <path class="cls-1" d="M30.4.28l-2.33,2.87c-.05.07-5.24,6.54-3.69,11.23.68,2.07,2.61,3.52,5.72,4.33l-.02.07h-2.08c-.07-.01-.32-.02-.67,0-2.02-.96-3.32-2.32-3.9-4.09-1.1-3.35.72-7.31,2.22-9.78l-6.8,4.86c-1.58,1.15-2.46,2.6-2.61,4.3-.34,3.72,2.74,7.75,3.92,9.15l-.5.94c-1.03-1.16-4.82-5.74-4.42-10.17.18-2.01,1.2-3.7,3.02-5.03L30.4.28Z"/>
      <path class="cls-2" d="M30.35,59.56l-.29-.02-4.45,5.69-11.82-1.3-.85-1.58,2.45-5.5c4.7,1.26,10.01,2.12,14.96,2.71Z"/>
      <path class="cls-1" d="M30.08,18.78l-.23.89c-.93-.24-1.78-.53-2.52-.89.35-.02.6-.01.67,0h2.08Z"/>
      <path class="cls-1" d="M27.94,49.19l-3.41,2.52-11.3-1.16-4.01-8.08,18.72,6.72ZM24.25,50.67l1.59-1.17-14.62-5.25,2.66,5.37,10.37,1.05Z"/>
      <path class="cls-1" d="M23.43,14.69c.58,1.77,1.88,3.13,3.9,4.09-1.59.05-5.42.58-7.02,4.16l-.15.28c-1.18-1.4-4.26-5.43-3.92-9.15.15-1.7,1.03-3.15,2.61-4.3l6.8-4.86c-1.5,2.47-3.32,6.43-2.22,9.78Z"/>
      <polygon class="cls-3" points="25.84 49.5 24.25 50.67 13.88 49.62 11.22 44.25 25.84 49.5"/>
      <path class="cls-1" d="M20.63,23.74l-.72.69s-.11-.12-.25-.27l.5-.94c.29.33.46.51.47.52Z"/>
      <path class="cls-1" d="M13.92,35.17l-.4.92-.56-.24c.2-.26.41-.53.63-.82l.33.14Z"/>
      <path class="cls-1" d="M12.31,34.47l1.28.56c-.22.29-.43.56-.63.82l-1.58-.69-.16-1.52.03-.1c.15-.45.13-.8-.07-1.05-.43-.58-1.67-.69-2.09-.68l-4.49-.62c-1.4-.29-2.39-.17-2.9.34-.64.65-.42,1.78-.41,1.8v.07s0,.07,0,.07c0,.02-.1,1.2.56,1.94.34.38.85.59,1.5.61h.11c.15.05,3.59.94,6.41,2.55-.1.06-.21.11-.31.16-.02.01-.34.12-.85.35-2.39-1.23-5.06-1.96-5.45-2.06-.91-.05-1.64-.36-2.16-.95-.84-.95-.83-2.28-.82-2.61-.05-.34-.22-1.71.7-2.63.77-.78,2.04-.98,3.78-.62l4.38.61c.13-.01,2.01-.03,2.83,1.07.27.35.51.95.25,1.85l.08.73Z"/>
      <path class="cls-1" d="M11.38,35.16l1.58.69c-1.05,1.29-2.08,2.2-3.08,2.72-2.82-1.61-6.26-2.5-6.41-2.54h-.11c-.65-.03-1.16-.24-1.5-.62-.66-.74-.57-1.92-.56-1.94v-.14s-.24-1.15.4-1.8c.51-.51,1.5-.63,2.9-.34l4.49.62c.42,0,1.66.1,2.09.68.2.25.22.6.07,1.05l-.03.1.16,1.52Z"/>
      <path class="cls-1" d="M10.04,38.66l-.51.86c-.26-.16-.54-.3-.81-.44.51-.23.83-.34.85-.35.1-.05.21-.1.31-.16.05.03.11.06.16.09Z"/>
    </g>
  </g>
</svg>