<?xml version="1.0" encoding="UTF-8"?>
<svg id="Layer_1" data-name="Layer 1" xmlns="http://www.w3.org/2000/svg" viewBox="0 0 454.26 312.25">
  <defs>
    <style>
      .cls-1 {
        fill: #050606;
      }

      .cls-2 {
        fill: #231f20;
      }

      .cls-3 {
        fill: #fad991;
      }

      .cls-4 {
        fill: #db8437;
      }

      .cls-5 {
        fill: #5b5e5f;
      }

      .cls-6 {
        fill: #535657;
      }

      .cls-7 {
        fill: #a21d20;
      }

      .cls-8 {
        fill: #f5dc61;
      }

      .cls-9 {
        fill: #323537;
      }

      .cls-10 {
        fill: #717577;
      }

      .cls-11 {
        fill: #8e9192;
      }
    </style>
  </defs>
  <path class="cls-4" d="M308.22,159.73c-1.13-.59-2.79-1.44-4.89-2.45.37-7.68-1.32-14.24-4.16-19.81l2.65-1.24c3.37,6.71,5.77,14.52,6.4,23.5Z"/>
  <path class="cls-4" d="M181.81,133.81c-5.24.35-9.09-1.81-13.77-7.85l-.19.07c.82,2.15,2.04,4.15,3.61,5.85.61.68,1.24,1.27,1.91,1.76l-2.02.32c-3.7-1.15-7.65-1.66-11.6-1.56l8.09-12.29c.17-.22.76-1.06,1.17-2.55l2.21.36c-.17.75-.28,1.52-.32,2.29-.19.86-1.11,6.14,3.69,10.12.46.56,2.68,2.97,7.22,3.48Z"/>
  <path class="cls-4" d="M301.82,136.23l-2.65,1.24c-3.62-7.07-9.1-12.53-14.6-16.61-1.04-.77-2.09-1.5-3.12-2.18-4.28-2.8-8.37-4.78-11.34-6.05-3.39-1.45-5.99-1.6-7.73-.45-1.83,1.21-1.95,3.35-1.95,3.6v.02l-2.69,26.88c-.06.56.32,1.06.87,1.16,10.38,1.96,20.62,5.39,29.13,8.77.99.8,12.4,11.1-4.66,51.45-.11.3-1.18,2.92-5.48,1.51l-10.76-1.99c.26-2.65.39-5.62.19-8.56,3.78-13.29,4.8-32.78-3.55-43.63l-.17.12c1.96,3.36,2.88,7.25,3.56,11.08.81,4.99,1.07,10.04.98,15.1l-2.98-.03c-.56-1.41-1.39-2.91-2.24-4.18-3.07-4.67-8.62-6.47-13.7-3.76-.25.14-.5.28-.74.43l-.2-.33c.66-.36,1.3-.79,1.91-1.28,1.95-1.59,3.59-3.86,4.57-6.6,2.37-6.62.06-13.52-5.14-15.39l.24-.79c3.17.98,6.25,2.21,9.08,3.91l.15-.14c-2.92-2.63-6.52-4.28-10.15-5.69-8.02-2.89-16.61-3.62-25.12-3.25l-.07-1.47c.6-.03,1.19-.1,1.78-.21,7.5.71,16.43-2.58,19.86-9.66l-.15-.13c-3.69,3.91-8.58,6.35-13.78,7.66,3.34-1.76,5.73-3.88,5.94-4.06,6.02-6.29,3.86-13.21,3.78-13.46-1.14-4.09-3.77-7.14-5.49-8.79,3.45-.66,6.09-.22,11.07,3.14l.27-.13c-.8-1.68-1.96-3.18-3.43-4.35-3.95-3.26-8.64-1.95-12.39.7-3.14,1.58-10.2,5.75-22.41,15.98-.12.09-1.78,1.35-4.76,1.31-.16-.26-.31-.52-.45-.79-3.65-6.01.1-8.74,2.12-14.19l-.17-.11c-5.16,5.13-7.77,9.92-2.73,15-1.17-.15-2.5-.5-3.98-1.16-3.75-5.02-.67-8.24.45-13.71l-.18-.08c-3.33,4.49-5.2,8.55-3.27,12.14-.03,0-.05-.03-.08-.05-1.55-1.03-3.14-2.33-4.73-3.89-.58-.89-5.12-8.07-6.23-12.35-.11-.62-.74-3.75-2.83-4.14-1.96-.36-3.58,1.91-4.65,3.71-.64.7-4.62,5.18-5.8,10.42l-2.21-.36c.45-1.6.7-3.97,0-7.14.32-.92,1.73-4.56,5.49-8.56l.08-.03s-.01-.02-.01-.03c1.9-2.03,4.42-4.14,7.7-6.04,1.29-.74,2.63-1.42,4.01-2.01,17.24-7.56,40.68-4.28,58.62.36-1.7,1.26-2.66,2.77-2.85,4.49-.52,4.5,4.57,8.64,4.79,8.81l.1.07c3.75,2.33,7.05,3.5,9.85,3.5.81,0,1.57-.1,2.29-.3,2.74-.74,3.79-2.68,3.8-2.7,1.17-1.89,2.19-3.73,3.08-5.54,4.48,2.04,25.1,12.36,35.85,33.79ZM254.03,127.83c3.39-3.88,3.77-10.57-.01-14.32l-.18.07c1.35,4.61.92,9.55-.01,14.2l.2.05ZM240.64,100.95l.08-.19c-6.9-5.72-18.37-2.47-22.58,5.07l.15.14c5.89-5.39,14.72-8.13,22.35-5.02ZM217.16,99.49l-.17-.1c-2.33,1.39-4.16,3.24-6.51,4.49-2.24,1.3-4.34,1.74-7.1,1.74l-.11.17c2.52,1.41,5.7,1.23,8.18-.17,2.46-1.38,4.25-3.77,5.71-6.13ZM201.46,102.03c-3.45.83-5.68-3.18-7.05-5.87l-.09.05c.22,2.66,1.74,5.44,4.4,6.35.92.3,2.09.21,2.74-.53ZM199.03,107.32l-.06-.08c-.88.25-1.63.32-2.26.14-1.38-.42-2.44-1.58-3.59-2.54-.48-.41-.99-.85-1.56-1.18-.2-.09-.44-.29-.75-.16l.04.09c.34.04.62.53.87.78,1.67,2.21,4.48,5.33,7.31,2.95Z"/>
  <path class="cls-2" d="M355.16,208.91c.91,2.11.16,4.91-2.23,8.32.52.98,1.3,2.76.41,4.59-.99,2.05-3.62,3.36-8.03,4.02.5,1.85.96,5.14-1.21,7.32-2.49,2.51-7.62,2.54-15.25.09-.72.73-2.2,1.69-5.29,2.41l3.93.35c.58.05,1.03.52,1.04,1.11,0,.57-.41,1.06-.99,1.14-38.18,4.94-83.67,10.66-89.32,10.66h-.18v.02c-27,.23-68.02.82-70.4,1.53l-.18.04c-.36.07-6.97,1.22-13.33,1.22-2.03,0-4.03-.12-5.8-.42-4.3-.61-4.63-1.43-4.59-2.22.05-1.1.09-1.96,13.77-2.6,2.74-.1,5.91-.45,7.4-.87-2.09-.62-12.69-2.99-46.72-.19-18.23.47-18.37-1.08-18.46-2-.11-1.19-.22-2.31,18.22-5.3.18-.02,10.28-1.2,23.61-2.57,6.27-.64,13.26-1.33,20.27-1.96,23.99-2.17,35.58-2.59,41.29-2.35.13.12.27.24.41.36.84.72,1.76,1.33,2.74,1.84-8.5-1.59-57.31,3.09-88.05,6.66-8.98,1.45-13.14,2.42-15.06,3.01,3.03.36,9.35.46,14.92.32,39.65-3.27,47.84.39,48.17.55,1.28.73,1.38,1.49,1.25,2.01-.15.58-.53,2.14-9.91,2.49-4.98.23-7.93.5-9.67.73.24.04.48.08.72.11,7.02,1.21,18.36-.77,18.48-.79,2.25-.5,17.17-.88,32.93-1.14s32.36-.41,37.97-.46h.18l.09.03c3.06.16,49.09-5.57,81.04-9.67l-4.95-.44c-.57-.05-1.01-.54-1-1.12.02-.58.49-1.05,1.07-1.06,10.39-.32,12.7-2.49,13.05-2.92.42-.5,1.09-.69,1.72-.49,8.71,2.83,12.13,1.83,13.46.48,1.74-1.75.84-5.02.52-5.98-.13-.39-.08-.82.14-1.17.22-.36.59-.59,1-.64,3.95-.51,6.51-1.57,7.2-3.01.47-.98,0-2.05-.35-2.6-.41-.7-.37-1.58.1-2.26,1.94-2.76,2.64-4.97,2.04-6.38-.61-1.43-2.49-1.73-2.51-1.73-9.74-1.87-13.48,3.62-14.39,5.35-.19.35-.51.61-.9.72-.38.1-.81.04-1.16-.18-2.8-1.74-6.51.97-6.55.99l-.13.08c-1.71.92-2.77,2.02-3.14,3.27-.44,1.47.17,2.82.45,3.34l.42.76-1.41,1.09-.67-.64c-2.69-2.68-5.85-.96-5.98-.88l-.24.09c-3.93,1.04-5.02,8.22-5.03,8.3l-.12.85h-7.72l.87-1.5c.08-.13,7.78-13.45,8.52-17.68l.06-.35,1.93-1.67c-.13.99,0,1.43.7,1.61.17.04.32.05.45.03l-1.24,1.08c-.9,3.94-5.81,12.9-7.83,16.48h2.56c.46-2.19,2.03-7.84,6.21-9.05,1.23-.65,3.59-1.26,5.94-.3-.06-.65-.01-1.38.21-2.13.53-1.77,1.89-3.26,4.06-4.43.58-.42,4.61-3.13,8.25-1.31,1.45-2.42,5.95-7.86,16.22-5.89.07,0,2.93.44,4,2.9Z"/>
  <path class="cls-1" d="M355.01,142.71c1.71,12.64-1.46,24.66-1.6,25.17l-.11.4-.36.21c-.32.18-.7.21-1.06.08-.82-.29-1.83-1.84-3-4.61-1.36,1.9-3.38,5.49-1.52,8.05,2.78,3.83,6.59,11.71.89,21.54-.28.46-6.8,10.98-18.47,12.68-.08.02-2.07.42-5.15.42-1.42,0-3.06-.09-4.86-.34.37-.64.71-1.27,1.02-1.89,4.98.57,8.6-.15,8.65-.16,10.77-1.57,17.03-11.63,17.09-11.73,4.87-8.39,2.26-15.15-.79-19.34-3.59-4.93,2.43-11.6,2.69-11.88l1.09-1.19.58,1.51c.53,1.38,1.23,2.93,1.79,3.97.73-3.43,2.12-11.42,1.43-19.94-2.18,2.96-6.55,8.04-12.74,11.19-.06.02-2.51,1.18-4.49,3.5.94.08,2.84.06,6.5-.53l2.32-.38-1.35,1.94c-.04.06-4.54,6.64-1.01,12.34,4.36,7.04,5.13,11.62-2.26,18.61-6.15,5.82-12.73,4.91-15.53,4.52-.17-.03-.35-.05-.52-.07.24-.65.47-1.3.67-1.93.04.01.08.01.12.02,2.74.37,8.43,1.17,13.88-3.99,6.77-6.4,5.73-9.99,1.94-16.11-3.01-4.86-1.31-10,0-12.68-5.52.71-6.5-.05-6.85-.32-.41-.31-.5-.68-.52-.87l-.03-.36.2-.3c2.36-3.47,5.9-5.13,6.04-5.19,8.38-4.25,13.41-12.63,13.46-12.71l1.46-2.48.39,2.85Z"/>
  <path class="cls-2" d="M353.85,115.45c.07.82.47,8.91-8.31,11.92,1.36,1.73,3.39,4.99,2.46,8.32-.82,2.95-3.72,5.18-8.63,6.64.68,1.49,1.48,4.15.17,6.7-1.44,2.83-5.03,4.61-10.67,5.32.26.97.41,2.4-.16,4.07-1.02,3.04-3.99,5.77-8.8,8.14-.54-.53-1.1-1.01-1.65-1.44,5.93-2.74,7.93-5.5,8.56-7.34.65-1.91.02-3.3-.18-3.68l-.26-.47.25-.56c.17-.32.49-.54.86-.58,5.53-.52,9.08-2.03,10.27-4.37,1.19-2.33-.15-4.96-.59-5.71-.19-.32-.22-.7-.07-1.05.14-.35.45-.61.81-.7,4.75-1.25,7.5-3.1,8.17-5.51.93-3.38-2.55-7.09-2.95-7.5l-.4-.41.14-.63c.1-.38.4-.67.77-.76,8.97-2.27,8.26-9.92,8.22-10.24-.1-7.52-7.99-9.03-9.57-9.26l-.55-.08-.29-.57c-.15-.35-.1-.76.12-1.07,2.2-3.02,3.65-5.67,4.33-7.86.64-2.07.59-3.74-.16-4.96-2.24-3.62-10.52-3.11-13.52-2.6-5.73,1.46-9.07,3.68-9.85,6.56-1.1,4.02,3.09,8.32,3.57,8.79l.37.37-.06.56c-.06.34-.28.64-.6.8-1.79.86-3.95,2.25-4.15,4.04-.2,1.98,1.99,3.78,2.44,4.13l.54.41-.17.75c-.12.43-.5.74-.95.78-2.99.28-5.06,1.07-6,2.29-.63.82-.64,1.69-.54,2.27.13.75-.23,1.51-.89,1.9-4.36,2.5-6.62,4.83-6.36,6.55.33,2.17,4.5,3.65,6.92,4.19l.66.15.15.72c.07.44-.13.86-.51,1.09-1.87,1.1-2.88,2.43-3.1,4.06-.51,3.84,3.58,8.12,4.05,8.6l.39.4-.12.61c-.1.36-.38.66-.74.76-1.73.52-2.88,1.36-3.41,2.49-.77,1.64-.08,3.51.15,4.05l.21.5-.13.24h-.01l-.3.46c-.22.22-.52.34-.83.34-.45.04-1.42,1.29-2.23,2.79-.16-.07-.31-.12-.44-.16-.05-.89-.11-1.76-.19-2.62.52-.71,1.11-1.34,1.75-1.7-.33-1.14-.61-2.99.21-4.75.62-1.32,1.73-2.34,3.31-3.06-1.55-1.84-4.14-5.53-3.65-9.22.22-1.66,1.02-3.11,2.4-4.32-2.5-.8-6.08-2.44-6.52-5.32-.41-2.69,1.96-5.48,7.24-8.53-.12-.83-.12-2.31.94-3.7s2.91-2.33,5.49-2.81c-.96-1.09-1.94-2.7-1.74-4.55.2-1.91,1.6-3.61,4.16-5.06-1.59-1.84-4.34-5.76-3.24-9.81.98-3.63,4.81-6.32,11.37-8,.57-.1,12.22-2,15.63,3.5,1.93,3.11.77,7.79-3.44,13.91,3.07.76,9.74,3.28,9.85,10.79Z"/>
  <path class="cls-9" d="M353.33,209.71c.6,1.41-.1,3.62-2.04,6.38-.47.68-.51,1.56-.1,2.26.34.55.82,1.62.35,2.6-.69,1.44-3.25,2.5-7.2,3.01-.41.05-.78.28-1,.64-.22.35-.27.78-.14,1.17.32.96,1.22,4.23-.52,5.98-1.33,1.35-4.75,2.35-13.46-.48-.63-.2-1.3-.01-1.72.49-.35.43-2.66,2.6-13.05,2.92-.58.01-1.05.48-1.07,1.06,0,.58.43,1.07,1,1.12l4.95.44c-31.95,4.1-77.98,9.83-81.04,9.67l-.09-.03h-.18c-5.61.05-22.21.2-37.97.46s-30.68.64-32.93,1.14c-.12.02-11.46,2-18.48.79-.24-.03-.48-.07-.72-.11,1.74-.23,4.69-.5,9.67-.73,9.38-.35,9.76-1.91,9.91-2.49.13-.52.03-1.28-1.25-2.01-.33-.16-8.52-3.82-48.17-.55-5.57.14-11.89.04-14.92-.32,1.92-.59,6.08-1.56,15.06-3.01,30.74-3.57,79.55-8.25,88.05-6.66h.01c2.47,1.3,5.41,1.94,8.77,1.94,1.62,0,3.33-.14,5.15-.44l-.33-1.98.93-1.06c5.04,5.43,12.84,6.82,14.84,7.09h0c2.46,1.54,5.06,1.92,7.01,1.92.5,0,.97-.03,1.37-.07.56-.05,1.12-.06,1.72-.06h.52c3.56-.09,6.85-3.18,9.64-7.29l23.99.26-1.24-1.62c-5.15-6.8-3.15-13.45-3.06-13.73l.55-1.71.1-.82c1.93.22,3.7.4,4.99.52,9.32,1.2,13.85-8.68,13.89-8.77,9.59-21.4,14.71-21.12,14.71-21.14l.18.06.19-.02c.69-.07,1.32.24,1.93.92,3.71,4.11,4.31,18.12,3.75,21.02-.11.58-.21,1.06-.26,1.45l-1.93,1.67-.06.35c-.74,4.23-8.44,17.55-8.52,17.68l-.87,1.5h7.72l.12-.85c.01-.08,1.1-7.26,5.03-8.3l.24-.09c.13-.08,3.29-1.8,5.98.88l.67.64,1.41-1.09-.42-.76c-.28-.52-.89-1.87-.45-3.34.37-1.25,1.43-2.35,3.14-3.27l.13-.08s3.75-2.73,6.55-.99c.35.22.78.28,1.16.18.39-.11.71-.37.9-.72.91-1.73,4.65-7.22,14.39-5.35.02,0,1.9.3,2.51,1.73ZM307.33,213.18c.64-2.47.9-4.9.73-6.84-.25-2.92-1.38-3.81-2.28-4.05-2.68-.7-5.38,3.88-6.65,8.76-1.26,4.88-1.14,10.19,1.55,10.89.19.04.37.07.55.07,2.5,0,4.92-4.29,6.1-8.83Z"/>
  <path class="cls-7" d="M353.32,145.66c.69,8.52-.7,16.51-1.43,19.94-.56-1.04-1.26-2.59-1.79-3.97l-.58-1.51-1.09,1.19c-.26.28-6.28,6.95-2.69,11.88,3.05,4.19,5.66,10.95.79,19.34-.06.1-6.32,10.16-17.09,11.73-.05.01-3.67.73-8.65.16,1.39-2.63,2.54-5.18,3.45-7.64.17.02.35.04.52.07,2.8.39,9.38,1.3,15.53-4.52,7.39-6.99,6.62-11.57,2.26-18.61-3.53-5.7.97-12.28,1.01-12.34l1.35-1.94-2.32.38c-3.66.59-5.56.61-6.5.53,1.98-2.32,4.43-3.48,4.49-3.5,6.19-3.15,10.56-8.23,12.74-11.19Z"/>
  <path class="cls-6" d="M351.86,115.61c.04.32.75,7.97-8.22,10.24-.37.09-.67.38-.77.76l-.14.63.4.41c.4.41,3.88,4.12,2.95,7.5-.67,2.41-3.42,4.26-8.17,5.51-.36.09-.67.35-.81.7-.15.35-.12.73.07,1.05.44.75,1.78,3.38.59,5.71-1.19,2.34-4.74,3.85-10.27,4.37-.37.04-.69.26-.86.58l-.25.56.26.47c.2.38.83,1.77.18,3.68-.63,1.84-2.63,4.6-8.56,7.34-2.98-2.4-5.96-3.69-7.54-4.26.81-1.5,1.78-2.75,2.23-2.79.31,0,.61-.12.83-.34l-.81,1.2c.17.11,1.45.94,3,.94.32,0,.64-.03.97-.11,1.13-.28,2.04-1.02,2.7-2.21l.12-.22v-.25c0-.07.2-7.02,3.47-7.08.54-.01,2.19-.04,2.83-1.23.66-1.25-.29-2.72-1.13-4.03-.33-.5-.66-1.02-.78-1.35-.1-.29-.26-.6-.42-.94-.8-1.59-1.62-3.24,2.76-6.33,5.71-4.03,4.46-8.31,3.99-9.91-.05-.18-.1-.32-.11-.42-.02-.17-.07-.41-.15-.7-.37-1.44-.93-3.61,3.02-5.09,4.37-1.64,6.97-5.11,6.95-7.53,0-1.18-.61-2.08-1.66-2.46-1.3-.48-4.11-3.04-4.77-5.81-.38-1.57-.02-2.9,1.07-4.08,2.74-2.92,6.17-3.44,10.21-1.54l.85-1.81h0c-.68,2.19-2.13,4.84-4.33,7.86-.22.31-.27.72-.12,1.07l.29.57.55.08c1.58.23,9.47,1.74,9.57,9.26Z"/>
  <path class="cls-11" d="M345.74,91.81c.75,1.22.8,2.89.16,4.96h0c-6.12-2.88-10.18-.51-12.52,1.99-1.54,1.65-2.08,3.69-1.55,5.9.81,3.42,4.06,6.51,6.03,7.23.13.04.34.12.34.59,0,1.48-1.95,4.26-5.65,5.65-5.63,2.11-4.63,6-4.25,7.46.04.17.08.31.09.41.02.23.09.47.18.77.43,1.46,1.32,4.51-3.22,7.72-5.34,3.76-4.55,6.54-3.4,8.86.13.25.25.49.33.71.19.55.57,1.14.98,1.77.35.54,1.09,1.68,1.07,1.97-.01,0-.22.18-1.13.2-1.34.02-2.36.61-3.12,1.47l-2.06-.24.12-.61-.39-.4c-.47-.48-4.56-4.76-4.05-8.6.22-1.63,1.23-2.96,3.1-4.06.38-.23.58-.65.51-1.09l-.15-.72-.66-.15c-2.42-.54-6.59-2.02-6.92-4.19-.26-1.72,2-4.05,6.36-6.55.66-.39,1.02-1.15.89-1.9-.1-.58-.09-1.45.54-2.27.94-1.22,3.01-2.01,6-2.29.45-.04.83-.35.95-.78l.17-.75-.54-.41c-.45-.35-2.64-2.15-2.44-4.13.2-1.79,2.36-3.18,4.15-4.04.32-.16.54-.46.6-.8l.06-.56-.37-.37c-.48-.47-4.67-4.77-3.57-8.79.78-2.88,4.12-5.1,9.85-6.56,3-.51,11.28-1.02,13.52,2.6Z"/>
  <path class="cls-5" d="M345.89,96.77l-.85,1.81c-4.04-1.9-7.47-1.38-10.21,1.54-1.09,1.18-1.45,2.51-1.07,4.08.66,2.77,3.47,5.33,4.77,5.81,1.05.38,1.66,1.28,1.66,2.46.02,2.42-2.58,5.89-6.95,7.53-3.95,1.48-3.39,3.65-3.02,5.09.08.29.13.53.15.7,0,.1.06.24.11.42.47,1.6,1.72,5.88-3.99,9.91-4.38,3.09-3.56,4.74-2.76,6.33.16.34.32.65.42.94.12.33.45.85.78,1.35.84,1.31,1.79,2.78,1.13,4.03-.64,1.19-2.29,1.22-2.83,1.23-3.27.06-3.46,7.01-3.47,7.08v.25l-.12.22c-.66,1.19-1.57,1.93-2.7,2.21-.33.08-.65.11-.97.11-1.55,0-2.83-.83-3-.94l.81-1.2.02-.02s.08-.08.11-.13l.15-.26.03-.04c.14.08,1.31.79,2.39.53.51-.13.93-.46,1.29-1.03.05-1.1.36-5.11,2.3-7.31.76-.86,1.78-1.45,3.12-1.47.91-.02,1.12-.2,1.13-.2.02-.29-.72-1.43-1.07-1.97-.41-.63-.79-1.22-.98-1.77-.08-.22-.2-.46-.33-.71-1.15-2.32-1.94-5.1,3.4-8.86,4.54-3.21,3.65-6.26,3.22-7.72-.09-.3-.16-.54-.18-.77,0-.1-.05-.24-.09-.41-.38-1.46-1.38-5.35,4.25-7.46,3.7-1.39,5.66-4.17,5.65-5.65,0-.47-.21-.55-.34-.59-1.97-.72-5.22-3.81-6.03-7.23-.53-2.21.01-4.25,1.55-5.9,2.34-2.5,6.4-4.87,12.52-1.99Z"/>
  <path class="cls-1" d="M335.1,179.38c6.67,4.35.71,11.43-5.7,9.7l-.05-.19,1.63-.57c4.83-1.83,6.63-3.97,3.94-8.87l.18-.07Z"/>
  <path class="cls-2" d="M325.27,174.44c2.32,5.81,2.19,12.63-.36,20.41-.79-.11-1.24-.16-1.63-.06l-.41-.13c2.54-7.48,2.72-13.99.55-19.46-1.34-3.37-3.44-5.92-5.63-7.84l.66-.29.06.14c.48-.21.95-.43,1.4-.65,2.09,1.99,4.04,4.57,5.36,7.88Z"/>
  <path class="cls-1" d="M324.91,194.85c-.2.63-.43,1.28-.67,1.93-.23-.03-.42-.04-.5-.05l-.46-1.94c.39-.1.84-.05,1.63.06Z"/>
  <path class="cls-2" d="M323.74,196.73c.08.01.27.02.5.05-.91,2.46-2.06,5.01-3.45,7.64-.44-.04-.88-.1-1.34-.17l-.64-.35c1.72-3.23,3.07-6.31,4.06-9.24l.41.13.46,1.94Z"/>
  <path class="cls-4" d="M323.42,175.2c2.17,5.47,1.99,11.98-.55,19.46-.99,2.93-2.34,6.01-4.06,9.24-.24.46-.5.93-.76,1.4-.01-5.61-1.04-15.44-4.42-19.19-1.24-1.37-2.54-1.62-3.44-1.58-1.48-.23-7.17.6-16.88,22.28-.16.35-4,8.63-11.85,7.6-6.51-.6-14.02-1.69-15.97-2.51.25-1.11.74-3.42,1.12-6.32l10.43,1.92c1.1.35,2.05.49,2.88.49,3.88,0,5.02-3.19,5.02-3.22,13.17-31.12,9.82-45.05,6.59-50.62,9.3,3.89,15.88,7.4,17.19,8.11.1.05.22.09.34.1v.05c.06.02,4.55,1.31,8.73,4.95,2.19,1.92,4.29,4.47,5.63,7.84ZM319.2,190.09l.2-.03c-.76-3.8-1.87-7.68-4.28-10.8-6.64-7.68-14.04,4.43-17.22,9.74-1.95,3.36-3.66,6.86-5.32,10.37l.18.09c1.97-2.78,4.59-6.81,6.5-9.67,8.79-12.66,13.43-16.9,19.94.3Z"/>
  <path class="cls-1" d="M320.79,204.42c-.31.62-.65,1.25-1.02,1.89-.21-.03-.41-.06-.62-.09l.3-1.97c.46.07.9.13,1.34.17Z"/>
  <path class="cls-11" d="M318.01,149.23l2.06.24c-1.94,2.2-2.25,6.21-2.3,7.31-.36.57-.78.9-1.29,1.03-1.08.26-2.25-.45-2.39-.53h0s.13-.25.13-.25l-.21-.5c-.23-.54-.92-2.41-.15-4.05.53-1.13,1.68-1.97,3.41-2.49.36-.1.64-.4.74-.76Z"/>
  <path class="cls-2" d="M319.15,206.22c.21.03.41.06.62.09-.51.95-1.07,1.91-1.66,2.88-.03.09-.08.26-.14.45-.34,1.1-.57,1.85-1.19,1.92l.58-.5-1.31-1.51-.42.37c.05-.39.15-.87.26-1.45.56-2.9-.04-16.91-3.75-21.02-.61-.68-1.24-.99-1.93-.92l-.19.02-.18-.06s-5.12-.26-14.71,21.14c-.04.09-4.57,9.97-13.89,8.77-1.29-.12-3.06-.3-4.99-.52-4.11-.49-8.94-1.21-11.32-2.11h0c.21-.68.34-1.12.38-1.24l-1.9-.57c.25-1.05,1.74-7.54,1.7-14.31h.91s.19.02.19.02c.28-.85.56-1.74.82-2.65.2,2.94.07,5.91-.19,8.56l-.93-.17-.36,1.97,1.06.19h0c-.38,2.91-.87,5.22-1.12,6.33,1.95.82,9.46,1.91,15.97,2.51,7.85,1.03,11.69-7.25,11.85-7.6,9.71-21.68,15.4-22.51,16.88-22.28.9-.04,2.2.21,3.44,1.58,3.38,3.75,4.41,13.58,4.42,19.19.26-.47.52-.94.76-1.4l.64.35-.3,1.97Z"/>
  <path class="cls-2" d="M319.91,166.56c-.45.22-.92.44-1.4.65l-.06-.14-.75-1.69c.19-.09.38-.17.56-.26.55.43,1.11.91,1.65,1.44Z"/>
  <path class="cls-1" d="M319.4,190.06l-.2.03c-6.51-17.2-11.15-12.96-19.94-.3-1.91,2.86-4.53,6.89-6.5,9.67l-.18-.09c1.66-3.51,3.37-7.01,5.32-10.37,3.18-5.31,10.58-17.42,17.22-9.74,2.41,3.12,3.52,7,4.28,10.8Z"/>
  <path class="cls-2" d="M317.82,100.19s2.73,4.7-1.1,1.62c0,0-2.51-1.62-5.56-2.2,0,0-8.35-2.16.75-2.97,0,0,3.93-.4,5.91,3.55Z"/>
  <path class="cls-2" d="M317.7,165.38l.75,1.69-.66.29c-4.18-3.64-8.67-4.93-8.74-4.95v-.05c.07.02.12.02.18.02.2,0,.4-.05.57-.16l.54-.39v-.19c.11-.27.24-.53.38-.78,1.58.57,4.56,1.86,7.54,4.26-.18.09-.37.17-.56.26Z"/>
  <path class="cls-2" d="M318.05,110.05s.86,2.33-4.22-.53c-5.09-2.86-13.85-7.53-17.1-7.3,0,0-5.41-1.51-2.38-2.48,0,0,19.69,1.36,23.7,10.31Z"/>
  <path class="cls-2" d="M316.05,209.55l1.31,1.51-.58.5c-.13.02-.28.01-.45-.03-.71-.18-.83-.62-.7-1.61l.42-.37Z"/>
  <path class="cls-11" d="M314.09,157.27h-.01.01Z"/>
  <path class="cls-5" d="M314.09,157.28l-.03.04.02-.05s.01,0,.01.01Z"/>
  <polygon class="cls-5" points="314.08 157.27 314.06 157.32 313.8 157.71 313.78 157.73 314.08 157.27"/>
  <path class="cls-5" d="M314.06,157.32l-.15.26s-.07.09-.11.13l.26-.39Z"/>
  <path class="cls-2" d="M310.28,160.7c.13.04.28.09.44.16-.14.25-.27.51-.39.78l-.02-.39c0-.19-.02-.37-.03-.55Z"/>
  <path class="cls-1" d="M310.33,161.64v.19s-.53.39-.53.39c-.17.11-.37.16-.57.16-.06,0-.11,0-.17-.02l.26-.92.91.42c.03-.07.07-.15.1-.22Z"/>
  <path class="cls-2" d="M310.31,161.25l.02.39c-.03.07-.07.15-.1.22l-.91-.42.26-.96c.06.02.31.09.7.22,0,.18.02.36.03.55Z"/>
  <path class="cls-2" d="M310.09,158.08c.08.86.14,1.73.19,2.62-.39-.13-.64-.2-.7-.22l-.26.96-.91-.41c.1-.23.24-.5.39-.81.33-.65.76-1.43,1.29-2.14Z"/>
  <path class="cls-1" d="M310.09,158.08c-.53.71-.96,1.49-1.29,2.14l-.58-.49c-.63-8.98-3.03-16.79-6.4-23.5-10.75-21.43-31.37-31.75-35.85-33.79.29-.61.57-1.22.83-1.82,6.16,2.81,39.8,19.83,43.29,57.46Z"/>
  <path class="cls-1" d="M309.32,161.44l-.26.92c-.12-.01-.24-.05-.34-.1-1.31-.71-7.89-4.22-17.19-8.11-1.3-2.25-2.58-3.14-2.76-3.25v-.03c4.88,1.94,9.18,3.85,12.6,5.47.42-15.46-8.02-26.13-16.91-33.04l-.11-2.15.22-.29c5.5,4.08,10.98,9.54,14.6,16.61,2.84,5.57,4.53,12.13,4.16,19.81,2.1,1.01,3.76,1.86,4.89,2.45l.58.49c-.15.31-.29.58-.39.81l.91.41Z"/>
  <path class="cls-1" d="M308.06,206.34c.17,1.94-.09,4.37-.73,6.84-1.18,4.54-3.6,8.83-6.1,8.83-.18,0-.36-.03-.55-.07-2.69-.7-2.81-6.01-1.55-10.89,1.27-4.88,3.97-9.46,6.65-8.76.9.24,2.03,1.13,2.28,4.05ZM306.11,207.56c0-.36,0-.72-.04-1.05-.15-1.73-.63-2.24-.79-2.28-.02-.01-.04-.01-.07-.01-.7,0-2.85,2.38-4.14,7.33-1.33,5.13-.51,8.29.11,8.45.6.15,2.88-2.2,4.21-7.32.48-1.82.72-3.6.72-5.12Z"/>
  <path class="cls-10" d="M306.07,206.51c.03.33.04.69.04,1.05,0,1.52-.24,3.3-.72,5.12-1.33,5.12-3.61,7.47-4.21,7.32-.62-.16-1.44-3.32-.11-8.45,1.29-4.95,3.44-7.33,4.14-7.33.03,0,.05,0,.07.01.16.04.64.55.79,2.28Z"/>
  <path class="cls-10" d="M284.46,123.3c8.89,6.91,17.33,17.58,16.91,33.04-3.42-1.62-7.72-3.53-12.59-5.47-.97-.39-1.96-.77-2.97-1.16l-1.35-26.41Z"/>
  <path class="cls-1" d="M291.53,154.15c3.23,5.57,6.58,19.5-6.59,50.62,0,.03-1.14,3.22-5.02,3.22-.83,0-1.78-.14-2.88-.49l-10.43-1.92h0c.08-.65.16-1.32.23-2l10.76,1.99c4.3,1.41,5.37-1.21,5.48-1.51,17.06-40.35,5.65-50.65,4.66-51.45,1.31.51,2.57,1.03,3.79,1.54Z"/>
  <path class="cls-1" d="M288.77,150.9c.18.11,1.46,1,2.76,3.25-1.22-.51-2.48-1.03-3.79-1.54-.04-.03-.07-.05-.07-.05l1.1-1.66Z"/>
  <path class="cls-1" d="M288.78,150.87v.03s-1.11,1.66-1.11,1.66c0,0,.03.02.07.05-8.51-3.38-18.75-6.81-29.13-8.77-.55-.1-.93-.6-.87-1.16l2.69-26.88v-.02c0-.25.12-2.39,1.95-3.6,1.74-1.15,4.34-1,7.73.45,2.97,1.27,7.06,3.25,11.34,6.05l-.24.36-2,.05v.55c-3.74-2.36-7.26-4.05-9.88-5.17-2.69-1.15-4.71-1.37-5.84-.63-1.04.67-1.07,2.05-1.07,2.07l-2.61,26.13c6.93,1.36,13.8,3.35,20.1,5.54l.04,1.44,2-.05-.02-.69c.62.22,1.23.44,1.83.67l.08,1.52,2-.1-.03-.66c1.01.39,2,.77,2.97,1.16Z"/>
  <path class="cls-1" d="M285.81,149.71l.03.66-2,.1-.08-1.52c.69.25,1.38.51,2.05.76Z"/>
  <path class="cls-1" d="M284.46,123.3l1.35,26.41c-.67-.25-1.36-.51-2.05-.76l-1.38-27.21c.69.5,1.39,1.01,2.08,1.56Z"/>
  <path class="cls-1" d="M284.57,120.86l-.22.29-2,.1.03.49c-.37-.26-.75-.52-1.12-.77l-.05-1.93.24-.36c1.03.68,2.08,1.41,3.12,2.18Z"/>
  <path class="cls-1" d="M284.35,121.15l.11,2.15c-.69-.55-1.39-1.06-2.08-1.56l-.03-.49,2-.1Z"/>
  <path class="cls-10" d="M283.76,148.95c-.6-.23-1.21-.45-1.83-.67l-.67-27.31c.37.25.75.51,1.12.77l1.38,27.21Z"/>
  <path class="cls-1" d="M281.93,148.28l.02.69-2,.05-.04-1.44c.68.23,1.35.46,2.02.7Z"/>
  <path class="cls-1" d="M281.26,120.97l.67,27.31c-.67-.24-1.34-.47-2.02-.7l-.69-27.94c.68.42,1.36.86,2.04,1.33Z"/>
  <path class="cls-1" d="M281.21,119.04l.05,1.93c-.68-.47-1.36-.91-2.04-1.33v-.55s1.99-.05,1.99-.05Z"/>
  <path class="cls-10" d="M279.22,119.64l.69,27.94c-6.3-2.19-13.17-4.18-20.1-5.54l2.61-26.13s.03-1.4,1.07-2.07c1.13-.74,3.15-.52,5.84.63,2.62,1.12,6.14,2.81,9.89,5.17Z"/>
  <path class="cls-2" d="M278.66,232.14l1.24,1.62-23.99-.26c.44-.64.87-1.31,1.29-1.99l18.75.21c-3.14-5.09-2.98-9.91-2.6-12.32-4.4.72-8.33-.27-10.1-.85.26-.67.48-1.3.69-1.88,1.8.57,6.05,1.6,10.46.47l1.75-.44-.55,1.71c-.09.28-2.09,6.93,3.06,13.73Z"/>
  <path class="cls-1" d="M268.72,79.97c2.07,6.08,1.43,13-1.92,20.65-.59-.27-.92-.41-.96-.42l-.88-.38c3.14-7.19,3.77-13.61,1.87-19.19-2.17-6.37-7.22-10.19-10.42-12.06,2.44,4.9,3.06,9.57,1.84,13.92-2.26,8.07-10,11.99-10.33,12.16h-.01c-.2.1-.39.19-.58.3l-.12-.23.53-1.93c-.13-.04-.27-.07-.4-.1,1.42-.81,7.22-4.42,8.99-10.76,1.29-4.62.2-9.73-3.24-15.18l-1.59-2.51,2.78,1.04c.44.16,10.84,4.15,14.44,14.69Z"/>
  <path class="cls-1" d="M267.85,177.69c.09-5.06-.17-10.11-.98-15.1-.68-3.83-1.6-7.72-3.56-11.08l.17-.12c8.35,10.85,7.33,30.34,3.55,43.63-.06-.88-.15-1.77-.28-2.64l.08-.56c.54-4.68.94-9.41,1.02-14.13Z"/>
  <path class="cls-4" d="M142.35,145.45h.14c5.29.02,9.7,3.94,12.03,8.45l.18-.09c.08-5.82-6.68-11.24-12.22-8.63,0,.01-.07.05-.09.05h0s0,.01,0,.02c.03.02.11.08.02.19l-.08-.18c-.1.1-.01.18.02.19ZM264.87,177.66l2.98.03c-.08,4.72-.48,9.45-1.02,14.13l-.08.56c-.41-2.78-1.19-5.43-2.51-7.62-1.68-2.78-4.08-4.57-7.14-5.32-.5-.19-2.65-.85-5.69.39-3.88,1.59-9.71,6.55-15.43,21.17-.29.49-2.51,4.1-6.36,7.14-2.9,2.3-6.74,4.27-11.38,4.34-.75.01-1.53.11-2.28.27,1.55-1.01,2.98-2.22,4.3-3.51,2.32-2.42,4.37-5.1,6.08-7.98l-.17-.1c-4.82,3.69-8.81,8.34-13.23,12.47,0,0,0,.01,0,0-1.3.47-2.21.93-2.29.98l-.13.08c-7.82,5.54-32.76-.11-32.94-.14-6.28-1.93-10.83-2.1-13.34-1.96-1.24.07-1.98.21-2.2.26-13.41,1.69-28.62-4.75-28.77-4.82l-.18-.06c-5.86-1.27-12.62-5.38-14.96-6.88l.03-.06c-.21-.11-.42-.22-.62-.34-.01.01-.02-.01-.02-.01-.15-.1-.23-.15-.24-.16l-.22-.15h-.13c-2.22-1.2-4.39-2.5-6.49-3.88-2.42-1.63-5.15-3.23-6.67-5.78l-.19.08c.54,3.63,4.13,6.79,8.05,8.65-3.7-.9-8.45-2.61-10.97-5.73-1.41-1.74-1.96-3.69-1.67-6,0-.05.4-4.59,3.59-6.58.69-.43,1.47-.71,2.33-.86,1.82-.3,4.01.05,6.56,1.04,1.57,1.17,15.88,11.79,26.88,16.39,2.63,1.09,5.07,1.85,7.1,2.05.47.13,2.12.51,5.89.53,3.23.03,8.02-.2,14.98-1.06.04,0,1.44-.05,3.5,0,2.42.04,5.73.19,8.8.65,1.8.27,3.51.64,4.9,1.17.38.17,4.79,2.2,10.44,3.29,6.36,1.24,14.28,1.28,19.81-3.82,1.23-.87,16.02-11.52,18.62-26.12,1.17-6.61-.37-12.99-4.58-18.97l-.14-.16c-.06-.06-6.2-5.59-15.15-.69-1.46.8-2.93,1.71-4.36,2.59-2.56,1.58-5.06,3.13-7.55,4.13-4.22,1.7-8.4,1.85-12.7-2.06-.08-.08-.62-.61-1.6-1.22-3.05-1.93-10.39-4.77-21.37,2.16l-.13.1s-.1.09-.27.22c-.57.45-1.99,1.52-3.9,2.45-2.01.99-4.58,1.82-7.24,1.61-1.03-.08-2.02-.32-2.97-.71-1.77-.72-3.39-1.97-4.85-3.75-.04-.05-3.48-3.95-5.42-7.22,1.25-.86,2.54-1.68,3.82-2.5l-.09-.18c-1.91-.35-3.52.17-5.02,1.15-.16.11-.31.23-.46.36-.02.02-.05.03-.07.05l-.04.02c-.59.39-14.05,9.75-8.86,39.12-1.74-1.02-3.45-2.08-5.08-3.12-.68-2.92-.94-5.94-.96-8.95-.04-8.36,2.05-16.69,5.86-24.12.75-1.49,1.65-2.91,2.47-4.36l-.17-.11c-8.93,9.63-12.63,24.83-7.73,37.2-6.25-4.03-11.16-7.71-11.27-7.79l-.23-.13c-2.24-.89-4.27-1.34-6.08-1.34-6.43-11.14-7.14-19.91-6.59-25.33.6-5.94,2.81-9.26,2.88-9.37,9.45-16.97,41.22-12.59,51.98-10.54-8.33,1.39-16.18,5.57-21.18,12.36l.15.14c2.43-2.36,5.28-4.28,8.26-5.89,7.47-4.04,16.04-5.91,24.51-5.71,1.69.03,3.38.23,5.08.33l.02-.19,2.02-.32c3.64,2.68,8.1,2.56,12.23.95-1.83,1.94-3.43,4.04-4.1,6.73l.17.12c2.47-1.62,4.1-3.84,5.62-6.26.54-.75,1.08-1.5,1.64-2.25.48-.29.95-.6,1.41-.93l-.02-.03c1.57-1.08,3.33-2.8,4.95-5.56,1.91,1.16,3.66,1.87,5.24,2.27,1.47.37,2.78.48,3.93.42.28-.01.55-.03.8-.06,1.33,8.29,11.15,10.2,16.39,10.05.39.03.78.05,1.17.05.22,0,.44-.01.66-.02l.07,1.47c-3.19.13-6.36.42-9.49.8l.02.2c9.57.49,19.15.48,28.56,2.43,2.33.49,4.66,1.05,6.95,1.74l-.24.79c-5.21-1.87-11.38,2-13.75,8.61-1.13,3.17-1.25,6.49-.32,9.36.95,2.97,2.89,5.11,5.46,6.03.89.32,1.81.47,2.73.47,1.54,0,3.09-.43,4.54-1.2l.2.33c-8.6,5.2-13.91,16.28-16.44,25.57l.19.08c1.64-3.76,3.55-7.41,5.67-10.92,4.54-7.42,14.09-20.6,23.3-11.92,1.53,1.37,2.66,3.1,3.79,4.8l.17-.1ZM234.67,157.55h.2c-.89-3.08-2.36-5.93-4.48-8.31-4.62-5.38-11.77-4.84-17.42-1.45-2.75,1.56-5.25,3.51-7.61,5.6l.13.15c2.83-1.54,5.5-3.13,8.24-4.38,9.98-4.73,15.84-.7,20.94,8.39ZM201.83,144.66c.96-1.31,1.35-3.92.06-6.78-2.68-5.93-4.5-6.44-4.93-6.47-3.26-.41-7.67,4.39-7.89,4.63-2.79,3.66-3.64,5.75-2.77,6.79.94,1.12,3.76.48,8.38-1.92.11-.05.23-.06.35-.02s.22.13.27.25c1.21,2.81,2.72,4.45,4.25,4.62.09.01.18.02.27.02.77,0,1.48-.39,2.01-1.12ZM195.32,155.88l.1-.17c-10.29-9.76-28.11-7.46-37.46,2.54l.12.16c2.68-1.92,5.65-3.43,8.73-4.61,9.21-3.63,20.03-3.28,28.51,2.08ZM183.22,213.02l.1-.17c-9.51-8.36-25.33-10.32-36.8-5.14l.05.19c3.06-.7,6.22-1.06,9.37-1.17,9.44-.33,19.02,1.62,27.28,6.29ZM123.09,153.79c2.37-6.62.06-13.52-5.14-15.38-2.57-.93-5.43-.51-8.06,1.18-2.53,1.63-4.56,4.27-5.69,7.43-1.87,5.22-.83,10.62,2.25,13.58.79.85,1.75,1.51,2.86,1.91,1.08.39,2.21.49,3.33.35,1.59-.1,3.21-.65,4.75-1.64,2.54-1.63,4.56-4.27,5.7-7.43ZM115.56,164.14l-.15-.12c-3.63,1.14-6.3.06-9.96-.02l-.12.16c1.47,1.23,3.26,2.1,5.18,2.34,1.98.18,3.91-.78,5.05-2.36Z"/>
  <path class="cls-7" d="M266.83,80.63c1.9,5.58,1.27,12-1.87,19.19-1,2.31-2.27,4.7-3.8,7.16-.03.05-.74,1.29-2.66,1.79-1.82.47-5.1.34-10.44-2.95-.46-.39-4.39-3.77-4.02-7,.17-1.48,1.28-2.78,3.29-3.87.19-.11.38-.2.58-.3h.01c.33-.17,8.07-4.09,10.33-12.16,1.22-4.35.6-9.02-1.84-13.92,3.2,1.87,8.25,5.69,10.42,12.06Z"/>
  <path class="cls-1" d="M265.91,203.41l.93.17c-.07.68-.15,1.35-.23,1.99l-1.06-.19.36-1.97Z"/>
  <path class="cls-1" d="M266.75,192.38c.13.87.22,1.76.28,2.64-.26.91-.54,1.8-.82,2.65l-.19-.03.73-5.26Z"/>
  <path class="cls-2" d="M266.75,192.38l-.73,5.26h-.91c-.03-4.27-.66-8.65-2.59-11.85-1.42-2.36-3.37-3.8-5.95-4.42l-.18-.06c-.06-.03-1.71-.69-4.34.42-3.5,1.48-8.81,6.17-14.23,20.07l-.06.13c-.16.27-2.26,3.93-6.15,7.21.03-.16.06-.33.09-.5l-1.97-.36-.11-.14c3.85-3.04,6.07-6.65,6.36-7.14,5.72-14.62,11.55-19.58,15.43-21.17,3.04-1.24,5.19-.58,5.69-.39,3.06.75,5.46,2.54,7.14,5.32,1.32,2.19,2.1,4.84,2.51,7.62Z"/>
  <path class="cls-1" d="M266.8,100.62c-.26.6-.54,1.21-.83,1.82-.53-.24-.84-.37-.87-.38l.74-1.86s.37.15.96.42Z"/>
  <path class="cls-1" d="M265.84,100.2l-.74,1.86s.34.14.87.38c-.89,1.81-1.91,3.65-3.08,5.54-.01.02-1.06,1.96-3.8,2.7-.72.2-1.48.3-2.29.3-2.8,0-6.1-1.17-9.85-3.5l-.1-.07c-.22-.17-5.31-4.31-4.79-8.81.19-1.72,1.15-3.23,2.85-4.49.78.2,1.54.4,2.3.61l.12.23c-2.01,1.09-3.12,2.39-3.29,3.87-.37,3.23,3.56,6.61,4.02,7,5.34,3.29,8.62,3.42,10.44,2.95,1.92-.5,2.63-1.74,2.66-1.79,1.53-2.46,2.8-4.85,3.8-7.16l.88.38Z"/>
  <path class="cls-2" d="M263.41,211.96l1.9.57c-.04.12-.17.56-.38,1.23-.63-.23-1.09-.48-1.32-.74l-.36-.39.13-.52s.01-.06.03-.15Z"/>
  <path class="cls-9" d="M265.11,197.65c.04,6.77-1.45,13.26-1.7,14.31h-.01c-1.31,4.4-4.45,13-8.38,19.28-2.68,4.27-5.72,7.48-8.8,7.54h-.5c-.61.02-1.24.03-1.87.08-2.15.2-6.23.02-9.32-3.37-4.18-4.58-5.19-13.68-2.92-26.35,3.89-3.28,5.99-6.94,6.15-7.21l.06-.13c5.42-13.9,10.73-18.59,14.23-20.07,2.63-1.11,4.28-.45,4.34-.42l.18.06c2.58.62,4.53,2.06,5.95,4.42,1.93,3.2,2.56,7.58,2.59,11.86ZM253.89,214.97c.99-3.33,1.43-6.63,1.24-9.29-.22-2.98-1.25-4.89-2.9-5.38-1.66-.49-3.56.54-5.38,2.91-1.62,2.12-3.06,5.12-4.05,8.45-1,3.34-1.44,6.63-1.24,9.29.22,2.98,1.25,4.89,2.9,5.38.28.09.56.13.84.13,3.36,0,6.85-5.67,8.59-11.49Z"/>
  <path class="cls-2" d="M264.93,213.76h0c-.24.73-.57,1.72-.99,2.91-.56-.18-.89-.31-.9-.32l-.77,1.85c.06.02.4.17.98.35-1.41,3.77-3.49,8.7-6.05,12.96l-1.78-.02-.4-.25c3.93-6.28,7.07-14.88,8.38-19.28h.01c-.02.09-.03.14-.03.15l-.13.52.36.39c.23.26.69.51,1.32.74Z"/>
  <path class="cls-1" d="M264.87,177.66l-.17.1c-1.13-1.7-2.26-3.43-3.79-4.8-9.21-8.68-18.76,4.5-23.3,11.92-2.12,3.51-4.03,7.16-5.67,10.92l-.19-.08c2.53-9.29,7.84-20.37,16.44-25.57.24-.15.49-.29.74-.43,5.08-2.71,10.63-.91,13.7,3.76.85,1.27,1.68,2.77,2.24,4.18Z"/>
  <path class="cls-2" d="M263.94,216.67c-.21.58-.43,1.21-.69,1.88-.58-.18-.92-.33-.98-.35l.77-1.85s.34.14.9.32Z"/>
  <path class="cls-1" d="M258.8,149.53l-.15.14c-2.83-1.7-5.91-2.93-9.08-3.91-2.29-.69-4.62-1.25-6.95-1.74-9.41-1.95-18.99-1.94-28.56-2.43l-.02-.2c3.13-.38,6.3-.67,9.49-.8,8.51-.37,17.1.36,25.12,3.25,3.63,1.41,7.23,3.06,10.15,5.69Z"/>
  <path class="cls-2" d="M255.42,231.49l1.78.02c-.42.68-.85,1.35-1.29,1.99h-.51s.02-2.01.02-2.01Z"/>
  <path class="cls-2" d="M255.4,233.49h.51c-2.79,4.12-6.08,7.21-9.64,7.29h-.52c-.6.01-1.16.02-1.72.07-.4.04-.87.07-1.37.07-1.95,0-4.55-.38-7.01-1.92.31.04.48.06.48.06-.72-.29-1.37-.68-1.96-1.14-.04-.03-.08-.06-.11-.09-.35-.3-.68-.63-1.01-.99-.39-.42-.75-.88-1.09-1.36-.12-.16-.22-.32-.32-.48-1.24-2-2.04-4.38-2.55-6.57-.02-.04-.03-.09-.03-.13-.94-4.62-.87-10.42.23-17.39.83-.56,1.61-1.15,2.32-1.77-2.27,12.67-1.26,21.77,2.92,26.35,3.09,3.39,7.17,3.57,9.32,3.37.63-.05,1.26-.06,1.87-.07h.5c3.08-.07,6.12-3.28,8.8-7.55l.4.25-.02,2Z"/>
  <path class="cls-1" d="M255.13,205.68c.19,2.66-.25,5.96-1.24,9.29-1.74,5.82-5.23,11.49-8.59,11.49-.28,0-.56-.04-.84-.13-1.65-.49-2.68-2.4-2.9-5.38-.2-2.66.24-5.95,1.24-9.29.99-3.33,2.43-6.33,4.05-8.45,1.82-2.37,3.72-3.4,5.38-2.91,1.65.49,2.68,2.4,2.9,5.38ZM251.97,214.4c.93-3.11,1.34-6.15,1.16-8.57-.15-2-.71-3.39-1.48-3.61-.08-.03-.17-.04-.26-.04-.77,0-1.86.83-2.95,2.25-1.48,1.92-2.8,4.7-3.73,7.8-.92,3.11-1.34,6.15-1.16,8.57.15,2,.71,3.39,1.48,3.62,1.48.43,4.92-3.25,6.94-10.02Z"/>
  <path class="cls-1" d="M249.33,146.55c5.2,1.87,7.51,8.77,5.14,15.39-.98,2.74-2.62,5.01-4.57,6.6-.61.49-1.25.92-1.91,1.28-1.45.77-3,1.2-4.54,1.2-.92,0-1.84-.15-2.73-.47-2.57-.92-4.51-3.06-5.46-6.03-.93-2.87-.81-6.19.32-9.36,2.37-6.61,8.54-10.48,13.75-8.61ZM253.53,161.6c2.19-6.11.16-12.42-4.54-14.11-4.7-1.68-10.28,1.91-12.47,8.01-2.19,6.11-.15,12.43,4.54,14.11,4.7,1.68,10.28-1.9,12.47-8.01Z"/>
  <path class="cls-1" d="M254.02,113.51c3.78,3.75,3.4,10.44.01,14.32l-.2-.05c.93-4.65,1.36-9.59.01-14.2l.18-.07Z"/>
  <path class="cls-1" d="M248.99,147.49c4.7,1.69,6.73,8,4.54,14.11-2.19,6.11-7.77,9.69-12.47,8.01-4.69-1.68-6.73-8-4.54-14.11,2.19-6.1,7.77-9.69,12.47-8.01ZM252.59,161.26c.56-1.56.82-3.13.82-4.62,0-3.84-1.76-7.13-4.76-8.21-.67-.24-1.37-.35-2.07-.35-3.64,0-7.44,3.09-9.11,7.76-.99,2.75-1.1,5.61-.31,8.07.76,2.36,2.27,4.05,4.24,4.76,4.17,1.49,9.18-1.83,11.19-7.41Z"/>
  <path class="cls-10" d="M253.13,205.83c.18,2.42-.23,5.46-1.16,8.57-2.02,6.77-5.46,10.45-6.94,10.02-.77-.23-1.33-1.62-1.48-3.62-.18-2.42.24-5.46,1.16-8.57.93-3.1,2.25-5.88,3.73-7.8,1.09-1.42,2.18-2.25,2.95-2.25.09,0,.18.01.26.04.77.22,1.33,1.61,1.48,3.61Z"/>
  <path class="cls-8" d="M253.41,156.64c0,1.49-.26,3.06-.82,4.62-2.01,5.58-7.02,8.9-11.19,7.41-1.97-.71-3.48-2.4-4.24-4.76-.79-2.46-.68-5.32.31-8.07,1.67-4.67,5.47-7.76,9.11-7.76.7,0,1.4.11,2.07.35,3,1.08,4.76,4.37,4.76,8.21Z"/>
  <path class="cls-1" d="M247.74,92.79l-.53,1.93c-.76-.21-1.52-.41-2.3-.61.61-.45,1.32-.87,2.12-1.26.02-.01.13-.07.31-.16.13.03.27.06.4.1Z"/>
  <path class="cls-2" d="M247.34,92.69c-.18.09-.29.15-.31.16-.8.39-1.51.81-2.12,1.26-17.94-4.64-41.38-7.92-58.62-.36l-.02-.04,1.54-1.29c-.31-.36-.6-.73-.87-1.1,11.39-4.49,30.22-6.77,60.4,1.37Z"/>
  <path class="cls-1" d="M246.74,113.48l-.27.13c-4.98-3.36-7.62-3.8-11.07-3.14-.88-.85-1.53-1.33-1.6-1.38l-.59.81-.32-.95c-.08.03-.71.25-1.97.88,3.75-2.65,8.44-3.96,12.39-.7,1.47,1.17,2.63,2.67,3.43,4.35Z"/>
  <path class="cls-1" d="M244.95,129.12l.15.13c-3.43,7.08-12.36,10.37-19.86,9.66,2.11-.38,4.14-1.2,5.91-2.13h.02c5.2-1.31,10.09-3.75,13.78-7.66Z"/>
  <path class="cls-1" d="M240.89,119.26c.08.25,2.24,7.17-3.78,13.46-.21.18-2.6,2.3-5.94,4.06h-.02c-2.74.69-5.56,1.06-8.33,1.16l-.03-.8c6.28,0,12.86-5.79,12.93-5.86,5.12-5.35,3.33-11.19,3.25-11.44-1.27-4.58-4.74-7.8-5.93-8.8.05-.02.09-.03.13-.05.02-.01.05-.01.06-.02.77-.2,1.49-.37,2.17-.5,1.72,1.65,4.35,4.7,5.49,8.79Z"/>
  <path class="cls-1" d="M240.72,100.76l-.08.19c-7.63-3.11-16.46-.37-22.35,5.02l-.15-.14c4.21-7.54,15.68-10.79,22.58-5.07Z"/>
  <path class="cls-3" d="M238.97,119.84c.08.25,1.87,6.09-3.25,11.44-.07.07-6.65,5.86-12.93,5.86-.34,0-.68-.01-1.02-.05h-.07s-.07-.01-.07-.01c-.03,0-3.57.11-7.13-1.02-4.31-1.36-6.77-3.86-7.3-7.43,1.58-.49,2.47-1.18,2.57-1.26.04-.03.08-.07.12-.1.1,1.84,1.63,3.3,3.49,3.3s3.49-1.57,3.49-3.5c0-1.63-1.11-3-2.62-3.38,11.31-9.04,17.16-11.93,18.79-12.65,1.19,1,4.66,4.22,5.93,8.8Z"/>
  <path class="cls-5" d="M236.13,239.06s-.17-.02-.48-.06h0c-.5-.31-.99-.66-1.47-1.08.59.46,1.24.85,1.96,1.14Z"/>
  <path class="cls-2" d="M234.87,157.55h-.2c-5.1-9.09-10.96-13.12-20.94-8.39-2.74,1.25-5.41,2.84-8.24,4.38l-.13-.15c2.36-2.09,4.86-4.04,7.61-5.6,5.65-3.39,12.8-3.93,17.42,1.45,2.12,2.38,3.59,5.23,4.48,8.31Z"/>
  <path class="cls-5" d="M234.17,237.92c.48.42.97.77,1.47,1.08-2-.27-9.8-1.66-14.84-7.09-2.45-2.65-4.26-6.26-4.41-11.18-.01-.25.33-.36.47-.15l6.69,9.8c.12.17.39.08.37-.13l-.42-6.14c-.02-.21.28-.28.37-.09l2.61,5.69c.02.07.12.03.1-.03-.4-1.56-.88-5.03,1.56-8.09,0,0,.08,3.09.92,6.71,0,.04.01.09.03.13.53,2.57,1.39,4.76,2.55,6.57.1.16.2.32.32.48.59.89,1.29,1.69,2.1,2.35.03.03.07.06.11.09Z"/>
  <path class="cls-1" d="M233.8,109.09c.07.05.72.53,1.6,1.38-.68.13-1.4.3-2.17.5.19-.08.29-.12.3-.12l-.32-.95.59-.81Z"/>
  <path class="cls-1" d="M233.21,109.9l.32.95s-.11.04-.3.12c-.01.01-.04.01-.06.02-.05.01-.1.03-.15.04-.24-.21-.39-.32-.4-.32l.59-.81Z"/>
  <path class="cls-1" d="M232.89,108.95l.32.95-.59.81s.16.11.4.32c-1.3.34-2.76.76-4.49,1.2l-.21-.22c.79-.78,1.67-1.52,2.6-2.18,1.26-.63,1.89-.85,1.97-.88Z"/>
  <path class="cls-1" d="M233.17,110.99s-.08.03-.13.05c0-.01-.02-.01-.02-.01.05-.01.1-.03.15-.04Z"/>
  <path class="cls-1" d="M233.02,111.03s.01,0,.02.01c-1.63.72-7.48,3.61-18.79,12.65-.28-.07-.57-.11-.87-.11-1.93,0-3.5,1.56-3.5,3.49,0,.07,0,.13.01.2-.04.03-.08.07-.12.1-.1.08-.99.77-2.57,1.26-.03-.2-.05-.4-.07-.6l-2,.17c.02.29.06.57.11.84-.25.03-.52.05-.8.06v-.4s.11-.16.11-.16c-.24-.53-.52-.98-.8-1.42,2.98.04,4.64-1.22,4.76-1.31,12.21-10.23,19.27-14.4,22.41-15.98-.93.66-1.81,1.4-2.6,2.18l.21.22c1.73-.44,3.19-.86,4.49-1.2Z"/>
  <path class="cls-2" d="M227.8,155.41c4.21,5.98,5.75,12.36,4.58,18.97-2.6,14.6-17.39,25.25-18.62,26.12-5.53,5.1-13.45,5.06-19.81,3.82l.11-.59c.07-.09.41-.55.91-1.3,3.89.69,8.27.88,12.16-.38.02.25.04.5.05.75l2-.1c-.03-.49-.06-.97-.09-1.44,1.2-.57,2.33-1.32,3.36-2.28l.11-.09c.15-.1,15.35-10.79,17.85-24.87,1.07-6.02-.34-11.86-4.18-17.36-.47-.4-3.04-2.4-7.09-2.12-.12-.7-.26-1.12-.29-1.19l-1.88.67c.02.06.11.34.2.83-1.15.28-2.38.75-3.7,1.47-1.09.6-2.21,1.27-3.31,1.94-.18-.31-.38-.61-.6-.9l-1.61,1.19c.18.25.35.5.51.77-.37.23-.75.45-1.12.68-.08-.28-.17-.56-.29-.83l-1.84.77c.15.36.26.74.32,1.12-1.22.69-2.46,1.34-3.73,1.87-.08-.11-.15-.2-.21-.28l-.97-1.31-.02-.06c2.49-1,4.99-2.55,7.55-4.13,1.43-.88,2.9-1.79,4.36-2.59,8.95-4.9,15.09.63,15.15.69l.14.16Z"/>
  <path class="cls-2" d="M231.7,208.64c-.03.17-.06.34-.09.5-.71.62-1.49,1.21-2.32,1.77.13-.86.28-1.74.44-2.63l1.97.36Z"/>
  <path d="M226.23,156.66c3.84,5.5,5.25,11.34,4.18,17.36-2.5,14.08-17.7,24.77-17.85,24.87l-.11.09c-1.03.96-2.16,1.71-3.36,2.28-1.26-17.49-7.44-19.15-8.16-19.29l-1.37-.26.2,1.39c1,6.93-5.28,16.54-6.92,18.9-.27-.06-.54-.12-.8-.19-.08-12.67-6.69-18.59-6.99-18.84l-1.4-1.22-.25,1.83c-.83,6.14-4.82,12.37-6,14.1-2.1-.25-4.2-.38-6.02-.44-3.53-7.85-3.93-16.1-3.94-16.18l-.08-1.98-1.54,1.24c-7.53,6.09-8.16,14.8-8.14,17.75-1.9.12-3.53.19-4.9.21-4.62-8.01-6.35-17.26-6.37-17.36l-.37-2.04-1.36,1.56c-5.96,6.84-6.6,12.29-6.41,15.05-2.1-.92-4.33-2.06-6.56-3.31-4.89-24.92,4.01-35.43,6.86-38.07.11.18.23.37.35.56-6.81,10.99.28,19.72.36,19.8l1.56,1.88.2-2.43c.46-5.67,3.37-9.38,4.67-10.78.83.76,1.7,1.4,2.62,1.9.96,6.57,6.26,11.38,6.49,11.58l1.76,1.57-.09-2.35c-.14-3.31,3.84-9.14,5.59-11.37h.01c.71-.38,1.34-.76,1.88-1.11.04,5.86,6.12,14.38,6.93,15.5l1.81,2.47v-3.06c.01-4.93,6.83-17.37,8.43-20.21,1.35.28,2.45.73,3.3,1.18.63,1.76,3.51,10.16,2.89,16.54l-.19,1.89,1.66-.92c.34-.18,7.86-4.38,12.1-11.61,1.15,1.73,2.11,3.58,2.04,4.28l-.37,3.7,2.18-3.02c.17-.24,3.87-5.46,2.59-10.1.37-.23.75-.45,1.12-.68,2.57,4.2,2.45,10.49,2.45,10.57l-.06,2.49,1.77-1.76c7.11-7.11,6.96-13.51,6.52-16.08,4.05-.28,6.62,1.72,7.09,2.12Z"/>
  <path class="cls-2" d="M229.62,208.14l.11.14c-.16.89-.31,1.77-.44,2.63-2.95,1.97-6.64,3.51-11.02,3.57-2.8.04-6.18,1.65-6.67,1.88-2.75,1.92-7.16,2.64-11.93,2.74-.06-.61-.06-.97-.06-.99h-2c0,.06,0,.42.04.99-9.63-.14-19.93-2.46-20.6-2.62-5.09-1.56-8.98-1.92-11.46-1.92.08-.21.17-.42.25-.63l-1.85-.71.24-.63c2.51-.14,7.06.03,13.34,1.96.18.03,25.12,5.68,32.94.14l.13-.08c.08-.05.99-.51,2.29-.98-.35.34-.7.67-1.06.99l.07.18c1.43-.52,2.76-1.22,4.02-2.05.75-.16,1.53-.26,2.28-.27,4.64-.07,8.48-2.04,11.38-4.34Z"/>
  <path class="cls-5" d="M229.09,228.43c.51,2.19,1.31,4.57,2.55,6.57-1.16-1.81-2.02-4-2.55-6.57Z"/>
  <path class="cls-9" d="M229.29,210.91c-1.1,6.97-1.17,12.77-.23,17.39-.84-3.62-.92-6.71-.92-6.71-2.44,3.06-1.96,6.53-1.56,8.09.02.06-.08.1-.1.03l-2.61-5.69c-.09-.19-.39-.12-.37.09l.42,6.14c.02.21-.25.3-.37.13l-6.69-9.8c-.14-.21-.48-.1-.47.15.15,4.92,1.96,8.53,4.41,11.18l-.93,1.06c-4.36.72-8.08.52-11.1-.6-.23-.23-.64-.48-1.58-.7-.85-.43-1.63-.96-2.35-1.57-4.06-3.46-4.97-8.81-5.17-11,4.77-.1,9.18-.82,11.93-2.74.49-.23,3.87-1.84,6.67-1.88,4.38-.06,8.07-1.6,11.02-3.57Z"/>
  <path class="cls-2" d="M226.17,201.16l.17.1c-1.71,2.88-3.76,5.56-6.08,7.98-1.32,1.29-2.75,2.5-4.3,3.51-1.09.22-2.14.55-3.02.88,4.42-4.13,8.41-8.78,13.23-12.47Z"/>
  <path class="cls-1" d="M231.15,136.78c-1.77.93-3.8,1.75-5.91,2.13-.1,0-.19-.01-.29-.02-1.11-.16-2.21-.37-3.28-.71v-.2c.38-.01.77-.02,1.15-.04,2.77-.1,5.59-.47,8.33-1.16Z"/>
  <path class="cls-1" d="M224.95,138.89c.1.01.19.02.29.02-.59.11-1.18.18-1.78.21-.22,0-.44.02-.66.02-.39,0-.78-.02-1.17-.05-5.24.15-15.06-1.76-16.39-10.05.74-.08,1.39-.23,1.96-.41.53,3.57,2.99,6.07,7.3,7.43,3.56,1.13,7.1,1.02,7.13,1.02h.14c.34.05.68.06,1.02.06l.03.8c-.38.02-.77.03-1.15.04v.2c1.07.34,2.17.55,3.28.71Z"/>
  <path class="cls-2" d="M219.87,232.97l.33,1.98c-1.82.3-3.53.44-5.15.44-3.36,0-6.3-.64-8.77-1.94.54.1.91.23,1.11.38l1.58-1.22c-.06-.07-.12-.15-.2-.24,3.02,1.12,6.74,1.32,11.1.6Z"/>
  <path class="cls-1" d="M219.14,154.54c.44,2.57.59,8.97-6.52,16.08l-1.77,1.76.06-2.49c0-.08.12-6.37-2.45-10.57.25-.16.49-.31.74-.46l.96-.6c1.83,2.99,2.44,6.76,2.65,9.2,4.91-5.81,4.7-10.72,4.36-12.61.69-.17,1.35-.27,1.97-.31Z"/>
  <path class="cls-1" d="M218.85,153.35c.03.07.17.49.29,1.19-.62.04-1.28.14-1.97.31-.09-.49-.18-.77-.2-.83l1.88-.67Z"/>
  <path class="cls-3" d="M217.17,154.85c.34,1.89.55,6.8-4.36,12.61-.21-2.44-.82-6.21-2.65-9.2,1.1-.67,2.22-1.34,3.31-1.94,1.32-.72,2.55-1.19,3.7-1.47Z"/>
  <path class="cls-1" d="M216.99,99.39l.17.1c-1.46,2.36-3.25,4.75-5.71,6.13-2.48,1.4-5.66,1.58-8.18.17l.11-.17c2.76,0,4.86-.44,7.1-1.74,2.35-1.25,4.18-3.1,6.51-4.49Z"/>
  <path class="cls-1" d="M214.25,123.69c1.51.38,2.62,1.75,2.62,3.38,0,1.93-1.56,3.5-3.49,3.5s-3.39-1.46-3.49-3.3c.37-.31.73-.61,1.09-.91-.06.22-.1.46-.1.71,0,1.38,1.12,2.5,2.5,2.5s2.49-1.12,2.49-2.5-1.11-2.49-2.49-2.49c-.08,0-.16,0-.24.01.38-.3.74-.6,1.11-.9Z"/>
  <path class="cls-1" d="M213.38,124.58c1.38,0,2.49,1.11,2.49,2.49s-1.11,2.5-2.49,2.5-2.5-1.12-2.5-2.5c0-.25.04-.49.1-.71.74-.61,1.46-1.2,2.16-1.77.08-.01.16-.01.24-.01ZM214.87,127.07c0-.82-.67-1.49-1.49-1.49s-1.5.67-1.5,1.49.67,1.5,1.5,1.5,1.49-.67,1.49-1.5Z"/>
  <path class="cls-1" d="M214.25,123.69c-.37.3-.73.6-1.11.9-1.02.1-1.87.81-2.16,1.77-.36.3-.72.6-1.09.91-.01-.07-.01-.13-.01-.2,0-1.93,1.57-3.49,3.5-3.49.3,0,.59.04.87.11Z"/>
  <path class="cls-2" d="M212.94,213.63c.88-.33,1.93-.66,3.02-.88-1.26.83-2.59,1.53-4.02,2.05l-.07-.18c.36-.32.71-.65,1.06-.99,0,.01,0,0,0,0Z"/>
  <path d="M213.38,125.58c.82,0,1.49.67,1.49,1.49s-.67,1.5-1.49,1.5-1.5-.67-1.5-1.5.67-1.49,1.5-1.49Z"/>
  <path class="cls-1" d="M210.98,126.36c.29-.96,1.14-1.67,2.16-1.77-.7.57-1.42,1.16-2.16,1.77Z"/>
  <path class="cls-1" d="M210.16,158.26l-.96.6c-.25.15-.49.3-.74.46-.16-.27-.33-.52-.51-.77l1.61-1.19c.22.29.42.59.6.9Z"/>
  <path class="cls-2" d="M209.18,202.7l-2,.1c-.01-.25-.03-.5-.05-.75.67-.22,1.33-.48,1.96-.79.03.47.06.95.09,1.44Z"/>
  <path class="cls-2" d="M208.97,232.61l-1.58,1.22c-.2-.15-.57-.28-1.11-.38h-.01c-.98-.51-1.9-1.12-2.74-1.84-.14-.12-.28-.24-.41-.36,1.96.08,3.23.24,4.07.42.5.27,1.03.5,1.58.7.08.09.14.17.2.24Z"/>
  <path class="cls-2" d="M209.09,201.26c-.63.31-1.29.57-1.96.79-.71-11.44-3.56-15.71-5.27-17.27-.06,6.77-4.84,14.6-6.89,17.65-.73-.13-1.44-.27-2.13-.43,1.64-2.36,7.92-11.97,6.92-18.9l-.2-1.39,1.37.26c.72.14,6.9,1.8,8.16,19.29Z"/>
  <path class="cls-2" d="M208.77,232.37c-.55-.2-1.08-.43-1.58-.7.94.22,1.35.47,1.58.7Z"/>
  <path class="cls-1" d="M207.34,160c1.28,4.64-2.42,9.86-2.59,10.1l-2.18,3.02.37-3.7c.07-.7-.89-2.55-2.04-4.28-4.24,7.23-11.76,11.43-12.1,11.61l-1.66.92.19-1.89c.62-6.38-2.26-14.78-2.89-16.54,1.28.66,1.98,1.32,2.08,1.42.23.21.47.41.7.6.96,3.12,2.22,8.15,2.19,12.76,2.44-1.63,7.13-5.22,9.95-10.22.82-.23,1.64-.53,2.44-.87.61.85,1.74,2.48,2.46,4.05.79-1.57,1.62-3.84,1.27-5.92.61-.34,1.21-.7,1.81-1.06Z"/>
  <path class="cls-1" d="M207.13,128.03c.02.2.04.4.07.6-.57.18-1.22.33-1.96.41-.05-.27-.09-.55-.11-.84l2-.17Z"/>
  <path class="cls-1" d="M207.05,159.17c.12.27.21.55.29.83-.6.36-1.2.72-1.81,1.06-.06-.38-.17-.76-.32-1.12l1.84-.77Z"/>
  <path class="cls-3" d="M205.53,161.06c.35,2.08-.48,4.35-1.27,5.92-.72-1.57-1.85-3.2-2.46-4.05,1.27-.53,2.51-1.18,3.73-1.87Z"/>
  <path class="cls-1" d="M205.25,112.03l.17.11c-2.02,5.45-5.77,8.18-2.12,14.19.14.27.29.53.45.79-.39-.01-.8-.03-1.23-.09-5.04-5.08-2.43-9.87,2.73-15Z"/>
  <path class="cls-2" d="M204.84,230.1c.72.61,1.5,1.14,2.35,1.57-.84-.18-2.11-.34-4.07-.42-4.41-4.06-5.29-9.85-5.47-12.15.3.01.6.01.9.01.38,0,.75,0,1.12-.01.2,2.19,1.11,7.54,5.17,11Z"/>
  <path class="cls-3" d="M201.86,184.78c1.71,1.56,4.56,5.83,5.27,17.27-3.89,1.26-8.27,1.07-12.16.38,2.05-3.05,6.83-10.88,6.89-17.65Z"/>
  <path class="cls-1" d="M204.55,128.54l-.12.16c-.73-.56-1.36-1.11-1.91-1.67.43.06.84.08,1.23.09.28.44.56.89.8,1.42Z"/>
  <path class="cls-1" d="M204.43,128.7v.4c-1.14.06-2.45-.05-3.92-.42l.09-.18c-.5-.78-1.1-1.34-1.57-2-.18-.21-.34-.42-.49-.63,1.48.66,2.81,1.01,3.98,1.16.55.56,1.18,1.11,1.91,1.67Z"/>
  <path d="M201.89,137.88c1.29,2.86.9,5.47-.06,6.78-.53.73-1.24,1.12-2.01,1.12-.09,0-.18-.01-.27-.02-1.53-.17-3.04-1.81-4.25-4.62-.05-.12-.15-.21-.27-.25s-.24-.03-.35.02c-4.62,2.4-7.44,3.04-8.38,1.92-.87-1.04-.02-3.13,2.77-6.79.22-.24,4.63-5.04,7.89-4.63.43.03,2.25.54,4.93,6.47ZM195.76,140.94c3.59,8.36,8.35,3.08,5.67-2.86-2.77-6.15-4.52-6.17-4.52-6.17-3.03-.4-7.44,4.43-7.44,4.43-7.84,10.29,1.83,5.76,4.98,4.13.49-.25,1.09-.03,1.31.47Z"/>
  <path class="cls-1" d="M201.59,162.65c.06.08.13.17.21.28-.8.34-1.62.64-2.44.87.19-.33.36-.66.53-1l.73-1.46.97,1.31Z"/>
  <path d="M201.43,138.08c2.68,5.94-2.08,11.22-5.67,2.86-.22-.5-.82-.72-1.31-.47-3.15,1.63-12.82,6.16-4.98-4.13,0,0,4.41-4.83,7.44-4.43,0,0,1.75.02,4.52,6.17ZM201.02,144.07c.76-1.04,1.07-3.3-.05-5.78-2.5-5.56-4.08-5.88-4.1-5.88h-.03c-2.28-.31-5.82,2.98-7,4.27-3.35,4.4-2.9,5.36-2.78,5.51.44.51,2.86.06,7.16-2.16.2-.11.43-.17.66-.17.17,0,.33.03.49.09.38.14.69.43.85.8,1.48,3.44,2.9,3.96,3.44,4.02.66.07,1.1-.34,1.36-.7Z"/>
  <path class="cls-5" d="M200.97,138.29c1.12,2.48.81,4.74.05,5.78-.26.36-.7.77-1.36.7-.54-.06-1.96-.58-3.44-4.02-.16-.37-.47-.66-.85-.8-.16-.06-.32-.09-.49-.09-.23,0-.46.06-.66.17-4.3,2.22-6.72,2.67-7.16,2.16-.12-.15-.57-1.11,2.78-5.51,1.18-1.29,4.72-4.58,7-4.27h.03s1.6.32,4.1,5.88Z"/>
  <path class="cls-1" d="M194.41,96.16c1.37,2.69,3.6,6.7,7.05,5.87-.65.74-1.82.83-2.74.53-2.66-.91-4.18-3.69-4.4-6.35l.09-.05Z"/>
  <path class="cls-2" d="M200.6,161.28l.02.06-.73,1.46c-.17.34-.34.67-.53,1-3.92,1.13-8,.88-12.14-2.54-.54-1.77-.99-2.93-1.04-3.07l.12-.19c.98.61,1.52,1.14,1.6,1.22,4.3,3.91,8.48,3.76,12.7,2.06Z"/>
  <path class="cls-1" d="M200.6,128.5l-.09.18c-2.53-1.39-4.12-2.88-4.97-4.46,1.06.7,2.06,1.24,3,1.65.15.21.31.42.49.63.47.66,1.07,1.22,1.57,2Z"/>
  <path class="cls-2" d="M199.61,218.11s0,.38.06.99c-.37.01-.74.01-1.12.01-.3,0-.6,0-.9-.01-.04-.57-.04-.93-.04-1h2Z"/>
  <path class="cls-1" d="M198.97,107.24l.06.08c-2.83,2.38-5.64-.74-7.31-2.95-.25-.25-.53-.74-.87-.78l-.04-.09c.31-.13.55.07.75.16.57.33,1.08.77,1.56,1.18,1.15.96,2.21,2.12,3.59,2.54.63.18,1.38.11,2.26-.14Z"/>
  <path class="cls-1" d="M198.81,112.08l.18.08c-1.12,5.47-4.2,8.69-.45,13.71-.94-.41-1.94-.95-3-1.65-1.93-3.59-.06-7.65,3.27-12.14Z"/>
  <path class="cls-3" d="M187.22,161.26c4.14,3.42,8.22,3.67,12.14,2.54-2.82,5-7.51,8.59-9.95,10.22.03-4.61-1.23-9.64-2.19-12.76Z"/>
  <path class="cls-1" d="M200.51,128.68c-1.58-.4-3.33-1.11-5.24-2.27-1.62,2.76-3.38,4.48-4.95,5.56l-.09-.14-.63.21c.91-1.18,1.87-2.31,2.95-3.34l-.11-.16c-1.25.71-2.32,1.66-3.38,2.61-.51.52-1.04,1.03-1.57,1.55-2.09.6-3.96.99-5.68,1.11-4.54-.51-6.76-2.92-7.22-3.48-4.8-3.98-3.88-9.26-3.69-10.12.04-.77.15-1.54.32-2.29,1.18-5.24,5.16-9.72,5.8-10.42,1.07-1.8,2.69-4.07,4.65-3.71,2.09.39,2.72,3.52,2.83,4.14,1.11,4.28,5.65,11.46,6.23,12.35,1.59,1.56,3.18,2.86,4.73,3.89.03.02.05.04.08.05.85,1.58,2.44,3.07,4.97,4.46ZM193.59,125.31c-.51-.36-1.03-.75-1.54-1.18h0c0-1.92-1.55-3.48-3.47-3.5-1.38-2.2-4.98-8.21-6.04-12.28-.2-1.17-.78-2.51-1.23-2.59h-.03c-.17,0-1,.15-2.59,2.85l-.13.18c-.06.05-5.43,5.81-5.66,11.6l-.03.21c-.05.19-1.15,4.81,3.07,8.25l.17.18c.11.14,2.77,3.54,9.43,2.76.26-.01,4.43-.26,8.05-6.48Z"/>
  <path class="cls-1" d="M195.42,155.71l-.1.17c-8.48-5.36-19.3-5.71-28.51-2.08-3.08,1.18-6.05,2.69-8.73,4.61l-.12-.16c9.35-10,27.17-12.3,37.46-2.54Z"/>
  <path class="cls-2" d="M194.97,202.43c-.5.75-.84,1.21-.91,1.3l-1.6-1.19s.15-.2.38-.54c.69.16,1.4.3,2.13.43Z"/>
  <path class="cls-2" d="M194.06,203.73l-.11.59c-5.65-1.09-10.06-3.12-10.44-3.29-1.39-.53-3.1-.9-4.9-1.17l.07-.52c.06-.07.41-.55.92-1.34,1.7.29,3.31.68,4.68,1.19.09.04,2.39,1.09,5.74,2.07.03.43.03.88.02,1.33l2,.03c0-.27.01-.55,0-.81.26.07.53.13.8.19-.23.34-.37.53-.38.54l1.6,1.19Z"/>
  <path class="cls-1" d="M192.44,128.54l.11.16c-1.08,1.03-2.04,2.16-2.95,3.34-.73.24-1.43.46-2.11.66.53-.52,1.06-1.03,1.57-1.55,1.06-.95,2.13-1.9,3.38-2.61Z"/>
  <path class="cls-3" d="M192.05,124.13c.51.43,1.03.82,1.54,1.18-3.62,6.22-7.79,6.47-8.05,6.48-6.66.78-9.32-2.62-9.43-2.76l-.17-.18c-4.22-3.44-3.12-8.06-3.07-8.25l.03-.21c.23-5.79,5.6-11.55,5.66-11.6l.13-.18c1.59-2.7,2.42-2.85,2.59-2.85h.03c.45.08,1.03,1.42,1.23,2.59,1.06,4.07,4.66,10.08,6.04,12.28h-.03c-1.93,0-3.5,1.57-3.5,3.49s1.57,3.5,3.5,3.5,3.49-1.56,3.5-3.49Z"/>
  <path class="cls-1" d="M192.05,124.12h0c-.41-.31-.82-.65-1.23-1.03-.27-.61-.79-1.08-1.42-1.31-.05-.05-.11-.1-.16-.15l-.13-.17c-.04-.06-.23-.35-.53-.83,1.92.02,3.47,1.58,3.47,3.49Z"/>
  <path class="cls-2" d="M192.04,201.81c.01.26,0,.54,0,.81l-2-.03c.01-.45.01-.9-.02-1.33.64.19,1.31.38,2.02.55Z"/>
  <path class="cls-1" d="M190.82,123.09c.41.38.82.72,1.23,1.04-.01,1.93-1.57,3.49-3.5,3.49s-3.5-1.57-3.5-3.5,1.57-3.49,3.5-3.49h.03c.3.48.49.77.53.83l.13.17c.05.05.11.1.16.15-.26-.1-.55-.15-.85-.15-1.38,0-2.5,1.12-2.5,2.49s1.12,2.5,2.5,2.5,2.5-1.12,2.5-2.5c0-.36-.08-.71-.23-1.03Z"/>
  <path class="cls-1" d="M189.78,65.35l1.14,1.63c-.06.06-6.73,5.7-7.41,13.4-.33,3.76.82,7.44,3.43,10.94-.66.26-1.29.52-1.9.8-2.7-3.79-3.89-7.79-3.52-11.93.31-3.55,1.72-6.65,3.27-9.08-13.8,10.91-12.27,23.51-10.93,28.52-.57.56-1.09,1.12-1.57,1.67-1.52-4.97-5.06-22.94,17.49-35.95Z"/>
  <path class="cls-1" d="M190.82,123.09c.15.32.23.67.23,1.03,0,1.38-1.12,2.5-2.5,2.5s-2.5-1.12-2.5-2.5,1.12-2.49,2.5-2.49c.3,0,.59.05.85.15.47.47.95.91,1.42,1.31ZM190.05,124.12c0-.82-.67-1.49-1.5-1.49s-1.5.67-1.5,1.49.67,1.5,1.5,1.5,1.5-.67,1.5-1.5Z"/>
  <path class="cls-1" d="M189.4,121.78c.63.23,1.15.7,1.42,1.31-.47-.4-.95-.84-1.42-1.31Z"/>
  <path class="cls-1" d="M190.32,131.97l.02.03c-.46.33-.93.64-1.41.93.04-.07.1-.14.15-.21.39-.2.81-.45,1.24-.75Z"/>
  <path class="cls-1" d="M190.23,131.83l.09.14c-.43.3-.85.55-1.24.75.17-.23.34-.45.52-.68l.63-.21Z"/>
  <path class="cls-2" d="M192.04,201.81c-.71-.17-1.38-.36-2.02-.55-.18-8.04-3.23-13.08-5.01-15.36-1.18,5.12-3.96,9.86-5.41,12.1-.72-.12-1.46-.23-2.2-.32,1.18-1.73,5.17-7.96,6-14.1l.25-1.83,1.4,1.22c.3.25,6.91,6.17,6.99,18.84Z"/>
  <path class="cls-1" d="M189.6,132.04c-.18.23-.35.45-.52.68-1.07.57-1.98.83-2.59.96.33-.33.66-.66,1-.98.68-.2,1.38-.42,2.11-.66Z"/>
  <path class="cls-1" d="M189.08,132.72c-.05.07-.11.14-.15.21-1.07.65-2.19,1.21-3.33,1.66.29-.31.59-.61.89-.91.61-.13,1.52-.39,2.59-.96Z"/>
  <path d="M188.55,122.63c.83,0,1.5.67,1.5,1.49s-.67,1.5-1.5,1.5-1.5-.67-1.5-1.5.67-1.49,1.5-1.49Z"/>
  <path class="cls-1" d="M188.93,132.93c-.56.75-1.1,1.5-1.64,2.25-1.52,2.42-3.15,4.64-5.62,6.26l-.17-.12c.67-2.69,2.27-4.79,4.1-6.73,1.14-.45,2.26-1.01,3.33-1.66Z"/>
  <path class="cls-1" d="M187.81,92.42l-1.54,1.29c-.44-.53-.85-1.05-1.23-1.59.61-.28,1.24-.54,1.9-.8.27.37.56.74.87,1.1Z"/>
  <path class="cls-1" d="M187.22,161.26c-.23-.19-.47-.39-.7-.6-.1-.1-.8-.76-2.08-1.42-.08-.21-.13-.32-.13-.33l1.87-.72c.05.14.5,1.3,1.04,3.07Z"/>
  <path class="cls-1" d="M187.49,132.7c-.34.32-.67.65-1,.98-.47.09-.76.1-.81.1-.75.09-1.46.13-2.12.13-.62,0-1.2-.03-1.75-.1,1.72-.12,3.59-.51,5.68-1.11Z"/>
  <path class="cls-2" d="M186.3,158l-.12.19-1.87.72s.05.12.13.33c-.85-.45-1.95-.9-3.3-1.18.2-.37.32-.57.33-.59l-1.73-1c-.06.1-.33.57-.74,1.32-3.24-.18-7.52.66-12.76,3.91.03-.08.06-.15.1-.22l-1.76-.94-.05-.06c.17-.13.26-.21.27-.22l.13-.1c10.98-6.93,18.32-4.09,21.37-2.16Z"/>
  <path class="cls-2" d="M186.27,93.71l.02.04c-1.38.59-2.72,1.27-4.01,2.01-3.28,1.9-5.8,4.01-7.7,6.04-.09-.21-.4-.97-.72-2.17,1.89-1.86,4.28-3.77,7.27-5.51,1.17-.69,2.47-1.36,3.91-2,.38.54.79,1.06,1.23,1.59Z"/>
  <path class="cls-1" d="M185.68,133.78s.34-.01.81-.1c-.3.3-.6.6-.89.91-4.13,1.61-8.59,1.73-12.23-.95-.67-.49-1.3-1.08-1.91-1.76-1.57-1.7-2.79-3.7-3.61-5.85l.19-.07c4.68,6.04,8.53,8.2,13.77,7.85.55.07,1.13.1,1.75.1.66,0,1.37-.04,2.12-.13Z"/>
  <path class="cls-3" d="M185.01,185.9c1.78,2.28,4.83,7.32,5.01,15.36-3.35-.98-5.65-2.03-5.74-2.07-1.37-.51-2.98-.9-4.68-1.19,1.45-2.24,4.23-6.98,5.41-12.1Z"/>
  <path class="cls-2" d="M183.32,212.85l-.1.17c-8.26-4.67-17.84-6.62-27.28-6.29-3.15.11-6.31.47-9.37,1.17l-.05-.19c11.47-5.18,27.29-3.22,36.8,5.14Z"/>
  <path class="cls-7" d="M184.79,71.11c-1.55,2.43-2.96,5.53-3.27,9.08-.37,4.14.82,8.14,3.52,11.93-1.44.64-2.74,1.31-3.91,2-2.99,1.74-5.38,3.65-7.27,5.51-1.34-5.01-2.87-17.61,10.93-28.52Z"/>
  <path class="cls-1" d="M179.74,156.47l1.73,1s-.13.22-.33.59c-.65-.14-1.37-.24-2.14-.27.41-.75.68-1.22.74-1.32Z"/>
  <path class="cls-1" d="M179,157.79c.77.03,1.49.13,2.14.27-1.6,2.84-8.42,15.28-8.43,20.21v3.06l-1.81-2.47c-.81-1.12-6.89-9.64-6.93-15.5,1.12-.74,1.86-1.36,2.09-1.55.06-.04.12-.08.18-.11-1.36,3.14,2.25,9.86,4.85,13.89,1.37-5.69,6.06-14.47,7.91-17.8Z"/>
  <path class="cls-3" d="M166.24,161.7c5.24-3.25,9.52-4.09,12.76-3.91-1.85,3.33-6.54,12.11-7.91,17.8-2.6-4.03-6.21-10.75-4.85-13.89Z"/>
  <path class="cls-2" d="M179.6,198c-.51.79-.86,1.27-.92,1.34l-1.61-1.18s.12-.18.33-.48c.74.09,1.48.2,2.2.32Z"/>
  <path class="cls-2" d="M178.68,199.34l-.07.52c-3.07-.46-6.38-.61-8.8-.65v-.56s1.82-.85,1.82-.85c-.09-.19-.17-.37-.25-.56,1.82.06,3.92.19,6.02.44-.21.3-.32.47-.33.48l1.61,1.18Z"/>
  <path class="cls-1" d="M174.58,101.8s.01.02.01.03l-.08.03s.04-.04.07-.06Z"/>
  <path class="cls-1" d="M174.58,101.8s-.05.04-.07.06l-1.76.76s-.21-.5-.46-1.32c.48-.55,1-1.11,1.57-1.67.32,1.2.63,1.96.72,2.17Z"/>
  <path class="cls-2" d="M172.75,102.62l1.76-.76c-3.76,4-5.17,7.64-5.49,8.56.69,3.17.44,5.54,0,7.14-.41,1.49-1,2.33-1.17,2.55l-8.09,12.29c-.59.02-1.19.05-1.78.1l-.07-.94,8.35-12.67c.08-.1,2.06-2.67.76-8.29l-.06-.25.07-.25c.07-.24,1.23-4.22,5.27-8.8.25.82.45,1.29.46,1.32Z"/>
  <path class="cls-2" d="M171.38,197.24c.08.19.16.37.25.56l-1.81.85c-.23-.49-.45-.97-.64-1.46.66.01,1.4.02,2.2.05Z"/>
  <path class="cls-2" d="M171.35,133.96l-.02.19c-1.7-.1-3.39-.3-5.08-.33-8.47-.2-17.04,1.67-24.51,5.71-2.98,1.61-5.83,3.53-8.26,5.89l-.15-.14c5-6.79,12.85-10.97,21.18-12.36,2.2.41,3.53.73,3.6.75l.69.17.95-1.44c3.95-.1,7.9.41,11.6,1.56Z"/>
  <path class="cls-2" d="M171.38,197.24c-.8-.03-1.54-.04-2.2-.05-2.37-5.58-3.25-11.12-3.56-14-5.32,5.29-5.91,12.19-5.93,14.72-.7.06-1.37.11-2.01.16-.02-2.95.61-11.66,8.14-17.75l1.54-1.24.08,1.98c.01.08.41,8.33,3.94,16.18Z"/>
  <path class="cls-2" d="M169.82,198.65v.56c-2.07-.04-3.47,0-3.51,0-6.96.86-11.75,1.09-14.98,1.06v-.48s1.73-1.02,1.73-1.02c-.1-.16-.19-.33-.28-.5,1.37-.02,3-.09,4.9-.21,0,.57.03.94.04,1.01l1.99-.18s-.03-.37-.02-.99c1.9-.16,4.05-.38,6.46-.68.15-.01,1-.04,2.29-.04h.74c.19.49.41.97.64,1.46Z"/>
  <path class="cls-3" d="M169.18,197.19h-.74c-1.29,0-2.14.03-2.29.04-2.41.3-4.56.52-6.46.68.02-2.53.61-9.43,5.93-14.72.31,2.88,1.19,8.42,3.56,14Z"/>
  <path class="cls-1" d="M166.34,161.48c-.04.07-.07.14-.1.22-.06.03-.12.07-.18.11-.23.19-.97.81-2.09,1.55-.01-1.05.17-2,.61-2.82l1.76.94Z"/>
  <path class="cls-2" d="M165.84,213.93c-.08.21-.17.42-.25.63-.95,0-1.7.05-2.22.11.21-.47.41-.96.6-1.46h.02s1.85.72,1.85.72Z"/>
  <path class="cls-2" d="M164.53,160.48l.05.06c-.44.82-.62,1.77-.61,2.82-.54.35-1.17.73-1.88,1.1.05-.07.1-.13.15-.19l-1.56-1.25-.05-.09c1.91-.93,3.33-2,3.9-2.45Z"/>
  <path class="cls-2" d="M164.23,212.59l-.24.63h-.02c-.19.49-.39.98-.6,1.45-.61.07-.93.14-.94.14l-.1.02c-13.57,1.73-28.36-4.33-29.77-4.92-6.98-1.56-14.79-6.64-16.21-7.59-.43-.05-1.32-.15-2.49-.36.12-.56.2-.87.21-.89l-.59-.17.18-.62c1.54.55,3.07.88,4.4.93l.06-.12c2.34,1.5,9.1,5.61,14.96,6.88l.18.06c.15.07,15.36,6.51,28.77,4.82.22-.05.96-.19,2.2-.26Z"/>
  <path class="cls-2" d="M163.37,214.67c.52-.06,1.27-.11,2.22-.11-4.88,12.12-12.32,17.03-17.76,19.02-2.36.87-4.54,1.27-6.32,1.44-.82.07-1.55.1-2.18.1-1.53,0-2.47-.16-2.56-.18-10.1-1.25-17.37-5.11-21.58-11.46-5.59-8.46-4.01-18.64-3.3-21.91.71.16,1.38.29,1.97.39-.63,2.94-2.14,12.66,3.01,20.43,3.87,5.83,10.66,9.39,20.2,10.58.76.13,17.4,2.71,26.3-18.3Z"/>
  <path class="cls-9" d="M162.43,214.81s.33-.07.94-.14c-8.9,21.01-25.54,18.43-26.3,18.3-9.54-1.19-16.33-4.75-20.2-10.58-5.15-7.77-3.64-17.49-3.01-20.43,1.17.21,2.06.31,2.49.36,1.42.95,9.23,6.03,16.21,7.59,1.41.59,16.2,6.65,29.77,4.92l.1-.02Z"/>
  <path class="cls-1" d="M162.24,164.27c-.05.06-.1.12-.15.19h-.01c-1.02.54-2.2,1.05-3.48,1.44,1.08-1.62,1.98-2.76,2.08-2.88l1.56,1.25Z"/>
  <path class="cls-2" d="M160.63,162.93l.05.09c-.1.12-1,1.26-2.08,2.88-1.64.5-3.46.79-5.35.64-.93-.07-1.83-.25-2.7-.53-.14-.56-.25-1.13-.31-1.72l.18-.46c.95.39,1.94.63,2.97.71,2.66.21,5.23-.62,7.24-1.61Z"/>
  <path class="cls-2" d="M159.75,132.4l-.95,1.44-.69-.17c-.07-.02-1.4-.34-3.6-.75,1.15-.2,2.3-.34,3.46-.42.59-.05,1.19-.08,1.78-.1Z"/>
  <path class="cls-2" d="M159.71,198.9l-1.99.18c-.01-.07-.04-.44-.04-1.01.64-.05,1.31-.1,2.01-.16,0,.62.02.97.02.99Z"/>
  <path class="cls-1" d="M158.6,165.9c1.28-.39,2.46-.9,3.48-1.43-1.75,2.23-5.73,8.06-5.59,11.37l.09,2.35-1.76-1.57c-.23-.2-5.53-5.01-6.49-11.58.71.41,1.45.73,2.22.97.83,3.31,2.84,6.07,4.21,7.66.67-2.65,2.41-5.64,3.84-7.77Z"/>
  <path class="cls-3" d="M158.6,165.9c-1.43,2.13-3.17,5.12-3.84,7.77-1.37-1.59-3.38-4.35-4.21-7.66.87.28,1.77.46,2.7.53,1.89.15,3.71-.14,5.35-.64Z"/>
  <path class="cls-2" d="M157.9,131.56l.07.94c-1.16.08-2.31.22-3.46.42-10.76-2.05-42.53-6.43-51.98,10.54-.07.11-2.28,3.43-2.88,9.37-.55,5.42.16,14.19,6.59,25.33-.76,0-1.48.08-2.17.23-12.4-22.15-3.62-35.42-3.24-35.98,5-8.99,16.67-13.75,33.64-13.58,10.87.08,20.78,2.14,23.43,2.73Z"/>
  <path class="cls-1" d="M142.48,145.18c5.54-2.61,12.3,2.81,12.22,8.63l-.18.09c-2.33-4.51-6.74-8.43-12.03-8.45h-.14s-.12-.09-.02-.19l.08.18c.09-.11.01-.17-.02-.19,0-.01,0-.01,0-.01h0s.08-.05.09-.06Z"/>
  <path class="cls-2" d="M152.78,198.28c.09.17.18.34.28.5l-1.72,1.02c-.3-.51-.59-1.02-.86-1.53.67.02,1.44.02,2.3.01Z"/>
  <path class="cls-2" d="M152.78,198.28c-.86.01-1.63.01-2.3-.01-3.15-5.79-4.86-11.85-5.59-14.94-5.21,6.74-4.76,11.66-4.48,13.05-.69-.26-1.4-.56-2.14-.89-.19-2.76.45-8.21,6.41-15.05l1.36-1.56.37,2.04c.02.1,1.75,9.35,6.37,17.36Z"/>
  <path class="cls-2" d="M151.34,199.8v.48c-3.78-.02-5.43-.4-5.9-.53-2.03-.2-4.47-.96-7.1-2.05l.2-.48c.04.13.07.21.08.24l1.88-.68s-.05-.15-.09-.4c1.97.75,3.78,1.25,5.31,1.39l.25.06s1.17.37,4.51.44c.27.51.56,1.02.86,1.53Z"/>
  <path class="cls-2" d="M150.42,163.83l-.18.46-1.99.22c.02.18.04.35.08.53-.92-.5-1.79-1.14-2.62-1.9.39-.41.64-.62.65-.63l-1.29-1.53c-.05.04-.33.28-.75.72-.1-.11-.19-.22-.28-.33-.1-.11-2.05-2.33-3.88-4.87.22-.4.46-.8.72-1.2l-1.67-1.09c-.1.15-.2.31-.29.46-.12-.19-.24-.38-.35-.56l-.06-.07c.54-.41,1.08-.8,1.64-1.18,1.94,3.27,5.38,7.17,5.42,7.22,1.46,1.78,3.08,3.03,4.85,3.75Z"/>
  <path class="cls-1" d="M150.24,164.29c.06.59.17,1.16.31,1.72-.77-.24-1.51-.56-2.22-.97-.04-.18-.06-.35-.08-.53l1.99-.22Z"/>
  <path class="cls-3" d="M144.89,183.33c.73,3.09,2.44,9.15,5.59,14.94-3.34-.07-4.49-.44-4.51-.44l-.25-.06c-1.53-.14-3.34-.64-5.31-1.39-.28-1.39-.73-6.31,4.48-13.05Z"/>
  <path class="cls-1" d="M145.07,160.98l1.29,1.53s-.26.22-.65.63c-.48-.44-.95-.92-1.39-1.44.42-.44.7-.68.75-.72Z"/>
  <path class="cls-1" d="M144.32,161.7c.44.52.91,1,1.39,1.44-1.3,1.4-4.21,5.11-4.67,10.78l-.2,2.43-1.56-1.88c-.08-.08-7.17-8.81-.36-19.8.39.61.81,1.23,1.24,1.83-3.59,6.38-2.09,11.68-.7,14.51,1.06-4.82,3.59-7.97,4.86-9.31Z"/>
  <path class="cls-3" d="M144.04,161.37c.09.11.18.22.28.33-1.27,1.34-3.8,4.49-4.86,9.31-1.39-2.83-2.89-8.13.7-14.51,1.83,2.54,3.78,4.76,3.88,4.87Z"/>
  <path class="cls-1" d="M143.88,150.18l.09.18c-1.28.82-2.57,1.64-3.82,2.5-.16-.26-.3-.51-.43-.75l-.52-.96-.8.54c.15-.13.3-.25.46-.36,1.5-.98,3.11-1.5,5.02-1.15Z"/>
  <path class="cls-1" d="M139.21,154.21l1.67,1.09c-.26.4-.5.8-.72,1.2-.43-.6-.85-1.22-1.24-1.83.09-.15.19-.31.29-.46Z"/>
  <path class="cls-2" d="M140.5,196.78l-1.88.68s-.04-.11-.08-.24c-.08-.31-.21-.9-.27-1.73.74.33,1.45.63,2.14.89.04.25.09.39.09.4Z"/>
  <path class="cls-1" d="M139.72,152.11c.13.24.27.49.43.75-.56.38-1.1.77-1.64,1.18-.78.58-1.54,1.18-2.27,1.83l-.14-.14c.16-1.7,1.04-2.99,2.23-3.99.02-.02.05-.03.07-.05l.8-.54.52.96Z"/>
  <path class="cls-2" d="M138.51,154.04l.06.07c-2.85,2.64-11.75,13.15-6.86,38.07,2.23,1.25,4.46,2.39,6.56,3.31.06.83.19,1.42.27,1.73l-.2.48c-11-4.6-25.31-15.22-26.88-16.39-2.55-.99-4.74-1.34-6.56-1.04l-.08-.57,1.72-1.02c-.1-.17-.2-.35-.3-.52,1.81,0,3.84.45,6.08,1.34l.23.13c.11.08,5.02,3.76,11.27,7.79.18.46.37.92.58,1.37l.19-.06c-.09-.32-.17-.65-.24-.97,1.63,1.04,3.34,2.1,5.08,3.12-5.19-29.37,8.27-38.73,8.86-39.12l.04-.02c-1.19,1-2.07,2.29-2.23,3.99l.14.14c.73-.65,1.49-1.25,2.27-1.83Z"/>
  <path class="cls-1" d="M131.55,150.22l.17.11c-.82,1.45-1.72,2.87-2.47,4.36-3.81,7.43-5.9,15.76-5.86,24.12.02,3.01.28,6.03.96,8.95-.18-.12-.35-.23-.53-.34-4.9-12.37-1.2-27.57,7.73-37.2Z"/>
  <path class="cls-2" d="M124.35,187.76c.07.32.15.65.24.97l-.19.06c-.21-.45-.4-.91-.58-1.37.18.11.35.22.53.34Z"/>
  <path class="cls-1" d="M117.95,138.41c5.2,1.86,7.51,8.76,5.14,15.38-1.14,3.16-3.16,5.8-5.7,7.43-1.54.99-3.16,1.54-4.75,1.64,3.76-.46,7.45-3.67,9.13-8.36.66-1.85.94-3.72.87-5.48v-.05c.2-4.51-1.83-8.47-5.41-9.76-4.69-1.68-10.27,1.91-12.46,8.01-.66,1.85-.94,3.72-.87,5.48v.05c-.14,3.11.79,5.96,2.55,7.85-3.08-2.96-4.12-8.36-2.25-13.58,1.13-3.16,3.16-5.8,5.69-7.43,2.63-1.69,5.49-2.11,8.06-1.18Z"/>
  <path class="cls-1" d="M117.23,139.21c3.58,1.29,5.61,5.25,5.41,9.76-.12-2.82-1.13-5.34-2.85-6.98-.69-.77-1.54-1.35-2.52-1.7-.67-.24-1.36-.36-2.07-.36-.36,0-.73.03-1.1.09h-.03c-3.81.38-7.59,3.61-9.3,8.38-.52,1.44-.8,2.9-.87,4.3-.07-1.76.21-3.63.87-5.48,2.19-6.1,7.77-9.69,12.46-8.01Z"/>
  <path class="cls-1" d="M122.64,149.02c.07,1.76-.21,3.63-.87,5.48-1.68,4.69-5.37,7.9-9.13,8.36-.18.01-.36.02-.54.02-.94,0-1.87-.16-2.76-.47-1.1-.39-2.07-1.01-2.89-1.81-1.76-1.89-2.69-4.74-2.55-7.85.17,4.02,2.14,7.42,5.41,8.58,4.69,1.68,10.27-1.9,12.46-8.01.52-1.44.8-2.9.87-4.3Z"/>
  <path class="cls-1" d="M122.64,148.97v.05c-.07,1.4-.35,2.86-.87,4.3-2.19,6.11-7.77,9.69-12.46,8.01-3.27-1.16-5.24-4.56-5.41-8.58v-.05c.07-1.4.35-2.86.87-4.3,1.71-4.77,5.49-8,9.3-8.38-1.03.18-2.08.6-3.09,1.25-2.17,1.4-3.91,3.68-4.9,6.43-2,5.57-.23,11.33,3.94,12.82,1.97.71,4.2.36,6.29-.98,2.17-1.4,3.91-3.68,4.89-6.42,1.53-4.27.86-8.64-1.41-11.13,1.72,1.64,2.73,4.16,2.85,6.98Z"/>
  <path class="cls-8" d="M119.79,141.99c2.27,2.49,2.94,6.86,1.41,11.13-.98,2.74-2.72,5.02-4.89,6.42-2.09,1.34-4.32,1.69-6.29.98-4.17-1.49-5.94-7.25-3.94-12.82.99-2.75,2.73-5.03,4.9-6.43,1.01-.65,2.06-1.07,3.09-1.25h.03c1.05-.11,2.11.01,3.13.37.97.35,1.83.89,2.56,1.6Z"/>
  <path class="cls-1" d="M118.15,201.03l-.03.06c-.25-.17-.45-.3-.59-.4.2.12.41.23.62.34Z"/>
  <path class="cls-1" d="M118.12,201.09l-.06.12c-1.33-.05-2.86-.38-4.4-.93-.68-.23-1.36-.52-2.03-.84,2.87.69,5.11.9,5.16.91h.13c.19.13.39.23.59.33,0,0,0,.02.02.01.14.1.34.23.59.4Z"/>
  <path class="cls-2" d="M117.51,200.68c-.2-.1-.4-.2-.59-.32h.13s.22.16.22.16c.01.01.09.06.24.16Z"/>
  <path class="cls-1" d="M116.92,200.36h-.13c-.05-.02-2.29-.23-5.16-.92h-.01c-3.92-1.86-7.51-5.02-8.05-8.65l.19-.08c1.52,2.55,4.25,4.15,6.67,5.78,2.1,1.38,4.27,2.68,6.49,3.87Z"/>
  <path class="cls-1" d="M115.41,164.02l.15.12c-1.14,1.58-3.07,2.54-5.05,2.36-1.92-.24-3.71-1.11-5.18-2.34l.12-.16c3.66.08,6.33,1.16,9.96.02Z"/>
  <path class="cls-2" d="M113.48,200.9l.59.17s-.09.33-.21.89c-.59-.1-1.26-.23-1.97-.39.13-.6.24-.97.26-1.05l1.33.38Z"/>
  <path class="cls-2" d="M113.66,200.28l-.18.62-1.33-.38c-.02.08-.13.45-.26,1.05-4.06-.92-9.72-2.81-12.79-6.6-1.75-2.16-2.46-4.67-2.11-7.46.01-.18.46-5.53,4.51-8.07.78-.49,1.64-.84,2.57-1.05.24.43.49.87.75,1.31l.08.57c-.86.15-1.64.43-2.33.86-3.19,1.99-3.59,6.53-3.59,6.58-.29,2.31.26,4.26,1.67,6,2.52,3.12,7.27,4.83,10.97,5.73h.01c.67.32,1.35.61,2.03.84Z"/>
  <path class="cls-2" d="M106.24,178.16c.1.17.2.35.3.52l-1.72,1.02c-.26-.44-.51-.88-.75-1.31.69-.15,1.41-.23,2.17-.23Z"/>
</svg>